<svg version="1.1" id="Layer_1" xmlns="http://www.w3.org/2000/svg" xmlns:xlink="http://www.w3.org/1999/xlink" x="0px" y="0px"
	 width="100%" viewBox="0 0 608 608" enable-background="new 0 0 608 608" xml:space="preserve">
<path fill="#000000" opacity="1.000000" stroke="none" 
	d="
M415.234619,307.265808 
	C403.551422,315.876160 392.233704,324.384766 380.769196,332.690826 
	C359.193848,348.322205 335.362366,353.040558 309.273987,347.661346 
	C291.368988,343.969513 273.340393,340.876892 255.365921,337.522583 
	C252.184891,336.928925 249.129593,337.116852 246.101730,338.505188 
	C241.561630,340.586914 236.997070,342.663330 232.297943,344.334259 
	C228.865631,345.554779 228.674057,347.390137 229.747162,350.427277 
	C232.883057,359.302521 232.334579,360.049438 223.300735,363.307373 
	C210.143723,368.052246 197.050491,372.974274 183.938293,377.842926 
	C177.124786,380.372803 175.411469,379.697388 172.977951,373.100708 
	C163.180725,346.542664 153.408890,319.975220 143.660995,293.399017 
	C141.802353,288.331665 142.829300,286.047180 147.944229,284.131714 
	C162.605164,278.641571 177.285172,273.201477 191.989563,267.828949 
	C197.070587,265.972504 199.176605,267.095245 201.157516,272.277283 
	C204.941711,282.176697 203.020752,281.529633 213.481918,277.410278 
	C221.858749,274.111694 229.523071,269.861511 236.795197,264.283447 
	C255.144440,250.208694 276.155090,248.647644 298.108276,253.448578 
	C309.904205,256.028229 321.341431,259.905487 331.782135,265.748291 
	C341.057220,270.938782 349.586426,270.434448 358.823181,266.629852 
	C366.262970,263.565430 373.922699,261.363007 382.169067,263.569244 
	C386.087555,264.617615 389.909149,265.907043 392.997375,268.479889 
	C395.422241,270.500061 397.233765,270.094818 399.633514,268.608032 
	C409.121490,262.729736 418.631317,256.878448 428.278778,251.267670 
	C442.348785,243.084808 458.222656,245.969604 468.815399,258.395020 
	C472.333282,262.521545 472.134277,265.069885 467.717438,268.360016 
	C450.348297,281.298279 432.932373,294.173828 415.234619,307.265808 
M285.779541,261.871674 
	C269.280914,259.760559 254.093369,263.361725 241.300400,273.961304 
	C235.235016,278.986786 228.642639,282.377960 221.573090,285.292084 
	C218.801529,286.434570 216.107025,287.817444 213.256912,288.702942 
	C209.181168,289.969330 208.130768,292.079102 209.811783,296.135315 
	C212.486832,302.590027 214.741211,309.219116 217.171204,315.775299 
	C219.588303,322.296692 222.002579,328.819122 224.660187,335.994751 
	C230.633209,333.563629 236.145630,331.356018 241.628159,329.076477 
	C245.621902,327.415924 249.425964,325.790497 254.088181,326.726349 
	C272.507111,330.423523 291.058746,333.479980 309.428650,337.395721 
	C333.862854,342.604065 355.943665,338.135834 376.000153,323.170929 
	C396.833282,307.626587 417.812469,292.278046 438.717651,276.830170 
	C444.969696,272.210205 451.187805,267.544342 457.372101,262.936310 
	C453.225555,256.431213 440.992798,255.517151 434.221008,259.709503 
	C425.013428,265.409851 415.703094,270.943970 406.466705,276.598175 
	C404.939667,277.532990 403.184540,278.411835 403.309937,280.696930 
	C403.520599,284.535248 401.011780,286.182800 397.983490,287.684998 
	C383.506378,294.866486 369.089050,302.168304 354.642975,309.412506 
	C352.862457,310.305389 351.101562,311.361816 349.030792,311.363586 
	C332.531281,311.377899 316.031769,311.358124 299.532257,311.364532 
	C296.245544,311.365784 294.460663,309.596832 294.428162,306.490173 
	C294.395081,303.323669 296.247375,301.687347 299.520355,301.655884 
	C313.847687,301.518097 328.175079,301.208130 342.501251,301.264984 
	C345.627533,301.277374 348.371887,300.832306 351.113800,299.445862 
	C362.709412,293.582611 374.344147,287.796814 385.949066,281.951904 
	C387.100189,281.372131 388.483643,281.015656 389.069153,279.501465 
	C388.086548,277.217834 385.995392,276.216583 383.910187,275.188263 
	C377.014465,271.787689 370.262207,273.148071 363.635742,275.935394 
	C351.010986,281.245850 339.043762,281.821075 326.382751,274.723389 
	C314.201111,267.894470 300.807220,263.426056 285.779541,261.871674 
M195.468079,286.961517 
	C194.877487,285.404724 194.232590,283.865967 193.708649,282.287079 
	C192.858429,279.724945 191.470490,279.016602 188.781189,280.045837 
	C178.675476,283.913605 168.509186,287.625092 158.334839,291.310272 
	C155.540619,292.322296 154.881714,293.867920 155.921051,296.670807 
	C164.139374,318.834015 172.291138,341.022064 180.401154,363.225189 
	C181.579086,366.450043 183.339249,367.108185 186.537170,365.850891 
	C196.143707,362.074036 205.782501,358.357635 215.537292,354.990051 
	C219.351700,353.673248 219.361328,351.829132 218.168915,348.627930 
	C210.613510,328.344391 203.189041,308.012115 195.468079,286.961517 
z"/>
<path fill="#000000" opacity="1.000000" stroke="none" 
	d="
M344.311768,95.953766 
	C363.638977,90.568428 380.159790,94.476379 392.727173,109.959412 
	C411.812653,133.472641 398.663300,169.721375 369.045349,176.180267 
	C340.809937,182.337677 314.735962,162.075058 315.830505,134.245193 
	C316.566376,115.533653 326.761505,103.059280 344.311768,95.953766 
M368.803375,165.443283 
	C386.943634,158.438400 395.333466,142.357391 389.680115,125.428261 
	C384.539581,110.034836 366.442444,100.586807 350.501709,104.974266 
	C332.807251,109.844421 322.572968,126.620247 327.169220,143.220490 
	C332.032715,160.785889 350.006042,170.653503 368.803375,165.443283 
z"/>
<path fill="#000000" opacity="1.000000" stroke="none" 
	d="
M287.155121,226.287369 
	C320.676819,181.332916 386.699341,179.745148 422.087219,222.786819 
	C423.982178,225.091599 425.623016,227.624161 427.209106,230.158981 
	C428.958130,232.954163 428.769653,235.803619 425.868225,237.567810 
	C423.057220,239.277054 420.374023,238.414795 418.557892,235.593277 
	C414.277222,228.942963 408.893402,223.324326 402.812775,218.304581 
	C371.423737,192.391876 322.314941,197.792816 297.425323,229.932938 
	C295.896851,231.906677 294.495819,233.981232 292.927032,235.921173 
	C291.037048,238.258331 288.621704,239.283920 285.931824,237.451401 
	C283.316650,235.669785 283.162781,233.045349 284.510803,230.363159 
	C285.179474,229.032745 286.117950,227.837952 287.155121,226.287369 
z"/>
<path fill="#000000" opacity="1.000000" stroke="none" 
	d="
M234.036942,475.982605 
	C230.634674,476.013336 230.151932,477.940735 230.172531,480.365662 
	C230.209290,484.690674 230.158981,489.016357 230.165512,493.341705 
	C230.169388,495.898468 229.260788,497.365509 226.366379,497.353455 
	C223.467484,497.341339 222.627289,495.913086 222.673813,493.316528 
	C222.742386,489.491516 222.522842,485.656372 222.714310,481.839966 
	C222.905304,478.032684 221.641800,476.612640 217.592010,475.683441 
	C212.611099,474.540619 207.881973,477.450836 203.049072,475.469788 
	C201.720535,474.925262 200.142807,475.850067 199.398285,477.653503 
	C200.740311,480.531616 203.693604,480.303528 206.116043,480.960632 
	C210.579910,482.171509 214.399185,483.966827 214.242599,489.463257 
	C214.116867,493.876953 210.872055,496.651001 205.157578,497.820740 
	C201.910889,498.485321 198.844727,497.742767 195.809021,496.973785 
	C191.061646,495.771210 190.695969,494.554962 193.418213,489.725189 
	C197.571014,490.045654 202.113190,494.244202 206.534576,489.442596 
	C204.532959,486.744843 201.719727,486.775909 199.258591,486.041138 
	C195.040558,484.781769 191.437042,482.996613 191.666565,477.648285 
	C191.866821,472.981659 194.216721,470.604614 200.009140,469.455383 
	C200.985748,469.261597 202.031570,468.775391 202.936569,468.959473 
	C214.207016,471.252045 225.583969,468.748230 236.872009,469.803802 
	C237.172134,469.831848 237.449677,470.101532 237.909332,470.351990 
	C238.666916,473.327179 238.855850,475.962433 234.036942,475.982605 
z"/>
<path fill="#000000" opacity="1.000000" stroke="none" 
	d="
M295.059387,474.137695 
	C295.749176,472.973114 296.236298,472.102905 296.742950,471.244202 
	C297.917786,469.253082 299.804535,469.554230 301.626007,469.795624 
	C303.854126,470.090912 304.024017,471.881653 304.043213,473.552246 
	C304.119507,480.202972 304.106964,486.854797 304.124786,493.506195 
	C304.131866,496.151520 302.973663,497.437378 300.164978,497.345673 
	C297.485687,497.258240 296.752869,495.794281 296.768829,493.484253 
	C296.786865,490.873901 296.773010,488.263306 296.773010,485.096069 
	C293.928284,486.883362 293.404877,489.435944 292.120148,491.430054 
	C289.456543,495.564575 287.435577,495.683105 284.685760,491.735352 
	C283.460999,489.977051 282.368195,488.126892 280.995117,485.972717 
	C278.532928,488.320892 279.823822,491.138550 279.554413,493.518463 
	C279.261505,496.105591 278.549164,497.488037 275.656525,497.361511 
	C272.838531,497.238312 272.517639,495.667236 272.557953,493.385071 
	C272.669525,487.067596 272.592010,480.746704 272.713501,474.429535 
	C272.745728,472.752197 272.014252,470.496521 274.563202,469.871918 
	C277.064362,469.259064 279.059174,469.968964 280.465759,472.363861 
	C282.801575,476.340912 285.316162,480.212982 287.954651,484.449066 
	C291.463287,481.532074 292.428375,477.459259 295.059387,474.137695 
z"/>
<path fill="#000000" opacity="1.000000" stroke="none" 
	d="
M239.232666,478.851227 
	C242.143768,471.761963 247.531479,468.794769 254.392151,469.075958 
	C260.741394,469.336182 265.963898,472.052246 268.266907,478.633484 
	C270.291016,484.417664 269.167633,489.650635 264.839874,493.781403 
	C259.763306,498.626984 253.607971,499.214966 247.218857,496.594543 
	C241.750137,494.351562 238.941696,490.090088 238.728333,484.202209 
	C238.668655,482.554993 238.965164,480.894897 239.232666,478.851227 
M252.143951,475.789581 
	C251.243774,476.206360 250.258057,476.500946 249.458206,477.061005 
	C245.896469,479.555023 245.115631,484.524933 247.661011,488.051422 
	C250.388184,491.829620 254.708008,492.469299 258.471466,489.577148 
	C261.069580,487.580536 262.259857,484.855621 261.371704,481.692932 
	C260.199066,477.517212 257.174469,475.532501 252.143951,475.789581 
z"/>
<path fill="#000000" opacity="1.000000" stroke="none" 
	d="
M358.921814,477.566589 
	C359.612396,480.537109 359.386658,483.350433 357.624634,485.048492 
	C354.151794,488.395325 355.381622,491.000946 357.940247,493.889984 
	C358.444092,494.458984 358.572906,495.360107 359.028809,496.489929 
	C355.071899,497.949524 351.863464,498.061768 349.568970,494.070587 
	C349.075104,493.211578 348.428650,492.432159 347.794617,491.663849 
	C346.862122,490.533783 345.618774,490.197235 344.204285,490.437134 
	C342.452301,490.734344 342.268250,492.104889 342.297363,493.464844 
	C342.363770,496.566895 340.748047,497.470886 337.887939,497.325439 
	C334.723877,497.164581 334.675568,495.034271 334.676880,492.786377 
	C334.680542,486.463074 334.777496,480.138824 334.690826,473.816925 
	C334.650055,470.844940 335.861084,469.563995 338.840454,469.666504 
	C342.164612,469.780853 345.506927,469.522369 348.821045,469.738068 
	C353.670959,470.053711 357.498657,471.985565 358.921814,477.566589 
M349.171722,482.958130 
	C351.237976,481.882111 352.333893,480.257446 350.949615,478.120850 
	C349.339630,475.635803 346.599640,475.760590 344.185272,476.353790 
	C341.486877,477.016754 342.053986,479.605713 342.433350,481.368500 
	C343.248474,485.156006 346.195465,483.405365 349.171722,482.958130 
z"/>
<path fill="#000000" opacity="1.000000" stroke="none" 
	d="
M443.440979,491.425415 
	C440.335724,489.622803 438.300140,489.882812 438.098969,493.626007 
	C437.933716,496.700409 436.248016,497.468506 433.461670,497.339722 
	C430.062836,497.182617 430.584503,494.898895 430.601044,492.738068 
	C430.649445,486.422943 430.741760,480.106232 430.643585,473.792816 
	C430.597412,470.821136 431.743774,469.541412 434.743744,469.656616 
	C438.062683,469.784058 441.400635,469.518829 444.711578,469.725311 
	C448.721588,469.975433 452.275696,471.366699 453.874603,475.456573 
	C455.414307,479.395020 455.531311,483.370789 452.281342,486.566345 
	C450.406616,488.409729 450.723602,489.796783 452.033936,491.711334 
	C453.008850,493.135712 454.732697,494.320435 454.334747,496.595673 
	C448.811951,499.246948 446.222717,495.548187 443.440979,491.425415 
M447.116608,478.903198 
	C445.662628,475.957642 443.012939,475.925446 440.305695,476.186127 
	C438.964630,476.315216 438.252777,477.291046 438.227600,478.568024 
	C438.190491,480.450073 437.381866,482.977539 440.103973,483.499664 
	C443.336487,484.119690 446.528259,483.858734 447.116608,478.903198 
z"/>
<path fill="#000000" opacity="1.000000" stroke="none" 
	d="
M398.184784,493.835693 
	C402.122650,487.439209 404.639069,480.358429 407.890442,473.631348 
	C408.932831,471.474609 409.824982,469.614868 412.845947,469.592621 
	C415.835327,469.570648 417.381653,470.798065 418.506042,473.378296 
	C421.809692,480.959412 425.249847,488.481018 428.795990,496.381104 
	C424.872467,497.687103 422.159393,498.197723 419.825531,494.406403 
	C417.485260,490.604645 409.190887,490.941101 406.394043,494.584930 
	C403.555756,498.282806 400.616425,498.428955 398.001099,494.508911 
	C398.027191,494.014282 398.184784,493.835693 398.184784,493.835693 
M414.011261,485.508240 
	C417.180878,483.282501 414.159210,481.912506 413.540985,479.915802 
	C410.099213,484.334473 410.100891,484.417603 414.011261,485.508240 
z"/>
<path fill="#000000" opacity="1.000000" stroke="none" 
	d="
M322.208099,475.486633 
	C320.836029,475.486450 319.834869,475.466278 318.843689,475.556244 
	C317.336365,475.693085 316.382568,476.366699 316.389191,478.080139 
	C316.396088,479.862946 317.500031,480.401093 318.957428,480.462219 
	C321.284363,480.559784 323.616638,480.579834 325.945923,480.556427 
	C328.019470,480.535614 329.034088,481.466797 328.983704,483.561523 
	C328.938507,485.441650 327.879028,486.236633 326.125610,486.273407 
	C323.962189,486.318756 321.797394,486.300262 319.634216,486.353119 
	C318.013336,486.392731 316.554718,486.808350 316.523987,488.791779 
	C316.493408,490.767670 318.052155,491.328705 319.565308,491.405518 
	C321.711761,491.514465 323.877686,491.175476 326.031799,491.215332 
	C328.284515,491.257050 331.070618,490.785187 331.083344,494.365570 
	C331.094971,497.641479 328.574554,497.342560 326.430756,497.361786 
	C322.102509,497.400665 317.770294,497.259430 313.446045,497.394806 
	C310.312286,497.492950 308.823883,496.314972 308.872681,493.068665 
	C308.967773,486.743622 308.953156,480.415985 308.901215,474.090088 
	C308.875854,471.007294 310.055634,469.541687 313.350769,469.645569 
	C318.806732,469.817535 324.272034,469.692322 329.616882,469.692322 
	C330.878601,475.865204 330.315857,476.283112 322.208099,475.486633 
z"/>
<path fill="#000000" opacity="1.000000" stroke="none" 
	d="
M162.675049,477.071167 
	C163.314804,474.077209 160.907822,470.104767 165.980453,469.728516 
	C168.541214,469.538605 170.183594,470.362122 170.178604,473.265564 
	C170.171738,477.259644 170.217972,481.254272 170.284409,485.247955 
	C170.341019,488.649841 171.749252,491.382996 175.380341,491.418762 
	C178.984024,491.454285 180.542114,488.776489 180.641678,485.381348 
	C180.758728,481.389648 180.779861,477.392853 180.734558,473.399475 
	C180.702545,470.577545 182.064835,469.626373 184.756088,469.686035 
	C187.376862,469.744202 188.299667,471.014954 188.206497,473.434509 
	C188.002289,478.737244 188.911484,484.091187 187.498276,489.337616 
	C185.929214,495.162537 181.038269,498.502380 174.682281,498.115387 
	C167.909470,497.703003 163.425735,493.834564 162.832199,487.535645 
	C162.521088,484.233948 162.711075,480.884979 162.675049,477.071167 
z"/>
<path fill="#000000" opacity="1.000000" stroke="none" 
	d="
M471.766602,491.591736 
	C474.160919,491.509430 476.146088,491.342590 478.124969,491.398499 
	C479.710480,491.443237 480.457153,492.408020 480.365723,494.047089 
	C480.277649,495.626434 480.128418,497.213501 478.090820,497.234222 
	C472.447906,497.291718 466.802704,497.297485 461.160736,497.196228 
	C458.889282,497.155457 458.703064,495.344025 458.700745,493.605988 
	C458.691620,486.796997 458.747040,479.987610 458.689362,473.179169 
	C458.667480,470.594116 459.892639,469.644318 462.344635,469.676636 
	C467.159882,469.740173 471.976440,469.705963 476.792450,469.708160 
	C478.962280,469.709167 480.301117,470.548706 480.145660,472.956085 
	C479.983429,475.468262 478.354431,475.760406 476.301270,475.649017 
	C473.818390,475.514252 471.325989,475.464966 468.840057,475.509766 
	C467.314697,475.537262 466.417023,476.425446 466.283936,478.010284 
	C466.131317,479.828064 467.277374,480.322479 468.748657,480.383209 
	C470.735657,480.465332 472.726379,480.468323 474.715668,480.483398 
	C476.739166,480.498718 478.336426,480.881775 478.241180,483.488068 
	C478.159546,485.721375 476.856750,486.280853 474.971436,486.285400 
	C473.809021,486.288239 472.635345,486.204468 471.486664,486.334961 
	C469.409485,486.570984 466.238525,485.306732 466.383575,489.146423 
	C466.511810,492.542572 469.396606,491.359894 471.766602,491.591736 
z"/>
<path fill="#000000" opacity="1.000000" stroke="none" 
	d="
M397.952759,494.107239 
	C387.621887,501.237915 375.642944,498.131836 372.619537,487.650696 
	C370.973053,481.942871 372.768463,475.844208 377.134827,472.312988 
	C381.673279,468.642700 389.596008,467.842651 394.560303,470.745392 
	C396.293427,471.758759 398.959015,472.722748 397.479553,475.563904 
	C396.073944,478.263275 394.056183,478.403046 391.261841,476.869385 
	C386.571716,474.295166 381.809479,476.303772 379.998871,481.121307 
	C378.549957,484.976501 380.949982,489.468292 385.122040,491.066406 
	C387.419464,491.946411 389.393250,491.361115 391.283356,490.204254 
	C394.993195,487.933411 397.174194,489.101807 398.203125,493.467346 
	C398.184784,493.835693 398.027191,494.014282 397.952759,494.107239 
z"/>
<path fill="#000000" opacity="1.000000" stroke="none" 
	d="
M149.703522,497.980072 
	C138.789871,497.018005 134.104034,492.613831 133.591095,484.278534 
	C132.799088,471.408386 146.271484,466.010498 155.536789,470.634491 
	C157.457367,471.592987 160.449036,472.504120 158.823883,475.623718 
	C157.416214,478.325867 155.273651,478.221405 152.540756,476.733002 
	C148.153900,474.343842 143.428802,476.134430 141.738983,480.277344 
	C139.884247,484.824554 142.105484,489.545959 146.717148,491.183075 
	C149.039658,492.007599 150.988724,491.387756 152.818314,490.091248 
	C155.473846,488.209412 157.724487,488.843384 158.992416,491.530334 
	C160.323898,494.351959 157.593994,495.317444 155.813644,496.221313 
	C154.074402,497.104340 152.024612,497.375763 149.703522,497.980072 
z"/>
<path fill="#000000" opacity="1.000000" stroke="none" 
	d="
M260.722656,518.097412 
	C262.495880,515.199402 263.791351,516.563721 263.691528,518.462891 
	C263.469025,522.694824 265.259155,525.183411 269.535309,526.250854 
	C264.802338,529.176392 249.440155,528.654297 244.787430,525.543762 
	C242.375580,527.456726 239.574280,528.540833 236.098923,527.079224 
	C235.814240,525.295715 235.509705,523.388000 235.092133,520.772034 
	C233.259369,525.078979 228.624664,524.525696 226.224152,528.571350 
	C223.955673,524.163818 223.902863,520.171631 225.505142,517.020142 
	C226.809387,514.454773 230.239075,515.663208 232.781143,516.537476 
	C233.730026,516.863770 234.600647,517.205078 235.639420,516.693115 
	C238.928284,515.072266 241.999252,515.477783 244.559998,518.099365 
	C249.087494,514.231750 254.093246,516.025757 258.909119,515.578735 
	C259.732300,519.720215 256.326843,518.409973 254.904984,519.426086 
	C255.669144,520.579956 257.629028,519.806458 258.057068,521.313843 
	C258.362579,523.638489 255.637238,522.664185 255.144760,524.173157 
	C256.428040,525.325684 257.855652,525.057190 259.365295,524.745239 
	C260.560608,522.810730 260.124237,520.540955 260.722656,518.097412 
M238.446960,521.610535 
	C238.616730,522.679565 238.425247,523.903198 239.665298,524.525269 
	C243.113327,521.190125 243.082764,520.950562 238.674927,518.095642 
	C238.586349,519.154968 238.507584,520.096924 238.446960,521.610535 
M250.209259,518.600098 
	C246.656509,521.113037 246.656509,521.113037 249.601746,523.785461 
	C250.594513,522.291870 250.732407,520.700317 250.209259,518.600098 
z"/>
<path fill="#000000" opacity="1.000000" stroke="none" 
	d="
M343.638947,548.882202 
	C342.216980,548.227295 341.110382,547.517273 339.891724,546.735291 
	C338.132233,546.215820 338.203094,549.162476 336.275848,548.763489 
	C333.482788,546.805542 336.292725,542.931152 333.674500,540.571777 
	C329.577789,541.985046 332.858398,546.846252 329.653168,549.153381 
	C326.796295,546.397461 329.930115,537.121826 321.078461,541.148926 
	C322.883728,543.136108 327.895294,544.198120 324.293579,548.096802 
	C322.007050,550.571899 319.024200,550.024109 316.498901,547.933838 
	C317.265747,545.450562 319.481750,547.076416 320.454102,545.790039 
	C320.383636,544.727173 319.374969,544.712463 318.714355,544.322876 
	C316.945221,543.279602 315.991699,541.780457 316.573425,539.745605 
	C317.117950,537.840942 318.854584,537.317688 320.554260,537.326660 
	C327.374969,537.362671 334.194763,537.579712 341.015472,537.616211 
	C343.030579,537.627014 344.180176,539.338196 345.871582,539.766968 
	C351.220123,536.572998 354.829346,536.501038 357.057037,539.730225 
	C358.993622,542.537476 358.846344,545.463867 356.358185,547.889282 
	C353.437866,550.735962 349.076630,549.690857 344.832947,545.308960 
	C343.619873,546.255737 345.546600,547.994202 343.638947,548.882202 
M354.463928,542.011475 
	C353.293091,540.092834 351.699524,539.846619 349.938477,541.056702 
	C348.809692,541.832397 348.124054,542.983398 348.750793,544.421875 
	C349.304169,545.692017 350.259552,546.659424 351.739746,546.454529 
	C353.839600,546.163940 354.804840,544.816895 354.463928,542.011475 
z"/>
<path fill="#000000" opacity="1.000000" stroke="none" 
	d="
M364.985565,518.981628 
	C368.079895,515.799377 371.568451,514.151245 375.511108,517.295654 
	C378.062714,519.330750 378.181793,522.358887 376.577484,524.975647 
	C374.848175,527.796326 371.851837,529.058411 368.801666,527.590332 
	C366.440582,526.453918 364.672211,526.265198 362.457092,527.645813 
	C361.182129,528.440430 359.483856,528.296387 358.109406,527.599121 
	C355.809967,526.432556 353.606079,525.218933 351.203094,528.999573 
	C349.354156,523.793274 349.533936,519.946960 350.786102,515.328918 
	C353.501770,517.698669 355.730865,517.587952 358.468658,516.108582 
	C360.729675,514.886780 363.400452,515.460571 364.476074,518.737915 
	C363.025604,519.162109 361.866791,519.097290 360.714020,519.154358 
	C359.316223,519.223572 358.104950,519.719482 357.560150,521.143555 
	C357.174469,522.151672 357.352966,523.117432 358.147614,523.875671 
	C359.407593,525.077759 360.830902,524.814819 362.319702,524.334656 
	C365.071442,523.447144 364.552216,520.989929 364.985565,518.981628 
M370.618408,524.697754 
	C372.706482,524.774048 374.181091,523.937744 374.265594,521.726624 
	C374.320312,520.294678 373.305389,519.353516 371.964935,518.894592 
	C370.703857,518.462891 369.717499,519.011414 368.997345,519.996826 
	C367.665558,521.819153 368.123474,523.324219 370.618408,524.697754 
z"/>
<path fill="#000000" opacity="1.000000" stroke="none" 
	d="
M279.648560,543.878296 
	C280.066223,544.558655 280.334991,544.966797 280.814301,545.694702 
	C282.716095,543.314758 280.761597,540.407715 282.205261,538.244080 
	C289.746185,536.156616 291.081909,537.109375 291.995361,544.030029 
	C292.509064,547.922180 290.890869,549.328674 287.460815,549.315491 
	C284.041351,549.302368 280.539948,549.870056 277.400146,547.626343 
	C274.743378,545.727844 272.626984,549.020813 269.751617,548.955933 
	C269.736450,544.750977 272.328094,541.753845 273.820801,538.421082 
	C274.482666,536.943298 276.190948,537.378113 277.030304,538.730408 
	C277.987488,540.272400 278.687775,541.973938 279.648560,543.878296 
z"/>
<path fill="#000000" opacity="1.000000" stroke="none" 
	d="
M257.230957,539.946411 
	C258.720062,536.053528 261.912628,537.981567 264.258362,537.602478 
	C266.288300,537.274475 268.537048,537.229919 271.531921,538.537659 
	C266.152893,540.601074 267.649139,545.277100 266.925964,549.239624 
	C261.568359,548.035461 266.334534,541.515015 261.474152,540.381287 
	C259.362915,543.065063 261.705170,546.784790 259.450684,549.094116 
	C257.267181,549.305603 257.795135,547.016785 256.425934,546.539978 
	C255.265305,547.299072 254.147202,548.424011 252.813187,548.818176 
	C250.296936,549.561707 247.001022,550.497314 245.448441,548.065308 
	C243.782715,545.456116 244.070068,541.812317 245.381348,538.930664 
	C246.593277,536.267334 253.509720,537.284302 255.717590,540.536804 
	C257.010223,542.441040 256.935059,541.562012 257.230957,539.946411 
M253.149384,544.034424 
	C253.572906,541.709351 252.319992,540.662964 250.238861,540.450134 
	C249.142395,540.338074 248.357864,541.027405 248.206223,542.145447 
	C248.031570,543.433044 247.732788,544.942322 248.843262,545.843811 
	C250.571350,547.246643 251.827484,546.066956 253.149384,544.034424 
z"/>
<path fill="#000000" opacity="1.000000" stroke="none" 
	d="
M374.080872,537.157898 
	C375.932617,537.276794 377.515900,537.028137 378.575409,538.470642 
	C378.290710,540.952759 375.838562,539.786377 374.399384,541.041687 
	C375.186829,542.526245 377.851776,541.267822 378.146118,543.292847 
	C377.860748,545.516113 375.138489,544.219177 374.370148,545.847107 
	C375.675781,546.881653 377.900726,545.673706 378.856750,548.110352 
	C376.322723,550.115295 373.175995,550.211670 370.935333,548.552246 
	C368.511963,546.757446 370.978180,543.092957 369.359894,540.318237 
	C362.911682,542.700317 369.749939,546.111145 368.790436,548.844910 
	C366.051178,549.937622 365.699799,546.792053 363.648987,546.163391 
	C361.914642,545.832520 362.455444,548.753662 360.577209,548.736023 
	C358.438904,548.510986 358.276215,542.348450 360.439789,538.103638 
	C362.071899,537.686218 362.142456,539.375305 363.289795,540.224243 
	C366.021179,536.993713 370.046173,537.789917 374.080872,537.157898 
z"/>
<path fill="#000000" opacity="1.000000" stroke="none" 
	d="
M333.449341,563.803650 
	C336.370148,566.562195 333.750305,567.661743 332.191345,569.383423 
	C329.351532,567.355347 326.419556,566.406372 323.211334,568.765259 
	C320.960938,570.419800 318.444580,570.596436 316.509979,568.263550 
	C314.143555,565.410156 314.600830,562.230286 316.683899,559.537659 
	C318.515350,557.170410 321.049561,556.835815 323.587891,558.572754 
	C323.902954,560.853210 321.972717,560.463928 321.042908,561.159180 
	C320.908600,562.267029 324.656494,563.420105 325.931885,562.631714 
	C327.971954,561.370789 328.349457,558.140076 331.512573,557.917969 
	C333.117249,559.486145 330.584259,562.400208 333.449341,563.803650 
z"/>
<path fill="#000000" opacity="1.000000" stroke="none" 
	d="
M314.791260,518.951660 
	C313.219391,518.904724 311.929993,519.035706 310.542389,519.176636 
	C310.735138,521.535339 313.869995,520.087036 313.872223,522.686768 
	C311.344238,523.375977 308.897339,524.668091 307.774750,528.660645 
	C305.090668,524.448975 305.475830,520.850281 306.424438,517.562805 
	C307.285645,514.578247 310.354645,515.872986 312.518188,515.731812 
	C315.164276,515.559082 317.832825,515.602600 320.485474,515.708191 
	C322.005219,515.768616 323.970093,515.219238 324.443726,517.578674 
	C323.564148,520.013306 321.035614,518.191711 319.629852,519.582825 
	C320.446594,521.238770 322.667572,519.576843 323.562927,521.706482 
	C323.945343,523.734009 320.778778,522.493591 320.319702,524.132812 
	C321.305084,525.637512 323.716797,524.295776 324.667633,526.697449 
	C322.961578,529.000427 320.420959,528.071960 318.203064,527.747314 
	C315.865356,527.405090 315.774261,525.393127 315.641602,523.505310 
	C315.538635,522.040039 315.952911,520.496338 314.791260,518.951660 
z"/>
<path fill="#000000" opacity="1.000000" stroke="none" 
	d="
M292.209717,567.483459 
	C289.492493,566.850769 287.833374,568.355103 285.919678,569.319641 
	C283.297516,570.641296 280.923981,569.892517 279.597656,567.278503 
	C278.012054,564.153442 278.323456,560.958191 281.150635,558.732788 
	C283.068573,557.223022 285.515106,556.527832 287.362122,559.027466 
	C286.729034,561.510132 284.557281,559.968689 282.913025,561.645935 
	C285.730652,561.216858 287.104034,564.769287 289.916901,562.502808 
	C291.682281,561.080322 292.027893,557.826660 295.892426,558.134827 
	C293.510834,561.924988 296.823914,563.343201 298.635010,565.554382 
	C297.335205,568.745361 295.676666,570.256897 292.209717,567.483459 
z"/>
<path fill="#000000" opacity="1.000000" stroke="none" 
	d="
M303.095947,538.369019 
	C305.897705,537.355896 308.451782,537.251953 311.051208,537.931091 
	C311.206787,541.150146 308.272217,539.788452 307.078400,541.115112 
	C309.305603,542.225037 313.032593,543.272156 307.653839,545.372925 
	C308.622131,546.687805 310.804047,545.993347 311.196960,547.860962 
	C309.018524,549.348572 296.558197,550.187134 294.697144,548.971497 
	C292.423462,547.486389 292.774414,539.938110 295.282806,537.638489 
	C297.248657,538.963562 296.192688,540.965881 296.305359,542.636108 
	C296.451935,544.808350 296.658264,546.641724 299.490021,546.660828 
	C302.369629,546.680237 302.584656,544.772949 302.636597,542.635132 
	C302.668732,541.312317 302.781860,539.991333 303.095947,538.369019 
z"/>
<path fill="#000000" opacity="1.000000" stroke="none" 
	d="
M341.542664,526.885254 
	C339.212128,527.783508 339.185638,526.197815 338.960999,524.928711 
	C338.647705,523.158325 339.221771,521.266785 338.228546,519.490417 
	C336.475983,518.171570 334.425049,519.520752 332.491974,518.973572 
	C330.539917,518.420959 328.616791,519.263000 328.681732,521.623108 
	C328.738342,523.680969 330.155243,524.891235 332.415039,524.676453 
	C333.541962,524.569275 334.726349,524.269287 335.708679,525.679565 
	C334.195923,528.367065 331.841339,528.332214 329.397430,527.592285 
	C326.753693,526.791809 325.215607,524.915283 325.125793,522.100342 
	C325.035889,519.281677 326.413269,516.956787 329.054108,516.411011 
	C334.327484,515.321106 339.699066,515.332092 346.564056,516.387817 
	C341.654999,519.347534 342.363892,523.181091 341.542664,526.885254 
z"/>
<path fill="#000000" opacity="1.000000" stroke="none" 
	d="
M294.915100,525.169006 
	C294.849701,523.436768 294.752777,522.101379 294.821930,520.774658 
	C294.913696,519.014343 294.363495,516.760254 296.622406,516.060974 
	C298.859131,515.368652 301.318939,515.329773 303.305878,516.907715 
	C305.051910,518.294312 305.790741,520.364258 304.369904,522.199158 
	C302.983887,523.988953 305.211243,525.764587 303.962585,527.339172 
	C301.514069,528.390930 301.228424,525.206299 299.415344,525.111450 
	C297.911743,525.114868 296.935822,530.330200 294.915100,525.169006 
z"/>
<path fill="#000000" opacity="1.000000" stroke="none" 
	d="
M274.596802,516.546875 
	C276.669220,515.505371 278.498047,515.554199 280.281982,515.976318 
	C282.181152,516.425842 283.640930,517.569336 283.868866,519.627075 
	C284.086426,521.590820 283.351349,523.362183 281.465302,524.129211 
	C279.201843,525.049683 276.938324,525.896606 275.063690,528.592896 
	C272.784912,524.093689 273.629456,520.461365 274.596802,516.546875 
z"/>
<path fill="#000000" opacity="1.000000" stroke="none" 
	d="
M378.546082,525.489014 
	C379.290222,522.239380 377.142975,518.931274 379.540375,516.219421 
	C382.499634,516.318726 383.078613,519.211731 385.128052,520.400513 
	C386.916504,519.624268 385.228943,516.638245 388.356873,516.114807 
	C390.119171,519.811829 389.098816,523.613708 389.091431,527.399536 
	C385.022888,527.824890 384.745758,523.887207 382.240936,523.148743 
	C380.758057,527.274414 380.758057,527.274414 378.546082,525.489014 
z"/>
<path fill="#000000" opacity="1.000000" stroke="none" 
	d="
M238.621429,549.381348 
	C231.486954,549.169312 235.443161,544.019836 234.684586,541.199463 
	C233.873520,538.183899 236.111221,537.119812 238.849258,537.466431 
	C240.343033,537.655457 242.219437,536.629150 243.289871,538.593201 
	C242.874329,540.962036 240.668564,540.150085 239.152100,541.036316 
	C239.821716,542.357971 242.118851,541.518677 242.341827,543.415588 
	C242.290161,544.868042 240.685120,544.580994 239.825424,545.340576 
	C240.433609,546.903870 243.186935,545.940186 243.216629,548.326721 
	C242.346664,550.370239 240.420059,549.019165 238.621429,549.381348 
z"/>
<path fill="#000000" opacity="1.000000" stroke="none" 
	d="
M290.889709,519.019836 
	C289.799591,520.918884 292.641388,520.206604 292.415405,521.622803 
	C292.223175,523.530518 289.919342,522.799500 289.117065,523.974182 
	C290.186981,525.577148 292.601410,524.512451 293.344757,526.750183 
	C290.873108,528.572205 287.692352,529.094543 285.845886,527.107666 
	C283.377167,524.451111 284.167328,520.402405 285.237000,517.252747 
	C286.130432,514.622131 289.228210,515.818115 291.436005,515.799011 
	C292.308441,515.791443 293.102600,516.286133 293.147064,517.234863 
	C293.207947,518.534302 292.093750,518.714172 290.889709,519.019836 
z"/>
<path fill="#000000" opacity="1.000000" stroke="none" 
	d="
M303.228882,562.757812 
	C304.487976,558.129150 308.319672,564.455933 309.755554,559.811523 
	C310.534973,563.512451 307.617371,566.264465 311.931976,569.044983 
	C307.999298,569.216248 305.699921,568.258667 303.461426,569.342102 
	C302.689087,566.959534 305.583740,564.968811 303.228882,562.757812 
z"/>
<path fill="#000000" opacity="1.000000" stroke="none" 
	d="
M309.958557,586.580933 
	C308.557037,587.102722 307.460785,587.462158 306.346191,587.750610 
	C305.067383,588.081543 303.638153,588.562866 302.880371,586.969421 
	C302.074799,585.275513 303.640900,584.785461 304.587036,583.918091 
	C305.769928,582.833679 306.768738,581.548523 308.096161,580.073120 
	C310.088257,581.888733 312.322021,583.302612 309.958557,586.580933 
z"/>
</svg>