<?xml version="1.0" encoding="UTF-8"?>
<svg version="1.1" xmlns="http://www.w3.org/2000/svg" width="200" height="200">
<path d="M0 0 C2.46078931 -0.31854333 4.67434372 -0.4405995 7.14013672 -0.43579102 C7.87527496 -0.44586685 8.61041321 -0.45594269 9.36782837 -0.46632385 C11.8052682 -0.49488983 14.24209056 -0.50068482 16.6796875 -0.50390625 C18.37118793 -0.51354229 20.06268581 -0.52363438 21.75418091 -0.53416443 C25.30346472 -0.55214801 28.85252929 -0.55768328 32.40185547 -0.5559082 C36.95101341 -0.55560342 41.49876554 -0.59654103 46.04759026 -0.64822483 C49.54263771 -0.68157883 53.03734523 -0.68766609 56.53253555 -0.68607903 C58.20951301 -0.68962109 59.88649909 -0.70290208 61.56332016 -0.72607613 C63.91023872 -0.75547073 66.25410673 -0.74685521 68.60107422 -0.72875977 C69.29420715 -0.74561829 69.98734009 -0.76247681 70.70147705 -0.77984619 C72.64718628 -0.74171448 72.64718628 -0.74171448 76 0 C78.27493286 2.92054749 78.27493286 2.92054749 80 6 C83.48804095 8.32536063 84.90140754 8.33457898 89 8 C91.25 7.5 91.25 7.5 93 6 C94.03595745 4.01838648 95.03916463 2.01910757 96 0 C105.87458265 -0.06941369 115.74910756 -0.12276721 125.6238842 -0.15543652 C130.20881625 -0.17111366 134.79358178 -0.19238906 139.37841797 -0.22631836 C143.80043303 -0.25883911 148.22228761 -0.27683757 152.64441299 -0.28463173 C154.3341843 -0.29018839 156.0239465 -0.30103878 157.71364975 -0.31719017 C160.07475738 -0.33886814 162.4351961 -0.34197105 164.79638672 -0.34057617 C165.49985229 -0.351362 166.20331787 -0.36214783 166.92810059 -0.3732605 C168.87423706 -0.36076355 168.87423706 -0.36076355 172 0 C174.25463952 3.38195928 174.26028242 4.57226088 174.29052734 8.5378418 C174.30328705 9.67299728 174.31604675 10.80815277 174.32919312 11.97770691 C174.33141876 13.20580582 174.33364441 14.43390472 174.3359375 15.69921875 C174.3459227 17.59544731 174.3459227 17.59544731 174.35610962 19.52998352 C174.3662467 22.20917805 174.37179041 24.88796705 174.37060547 27.56713867 C174.37040301 30.98230571 174.39762546 34.39663371 174.43214989 37.81160259 C174.45989807 41.0866089 174.45857217 44.36161096 174.4609375 47.63671875 C174.47530853 48.8546965 174.48967957 50.07267426 174.50448608 51.32756042 C174.46683598 58.36970121 173.82663687 63.0295138 170 69 C165.13550611 73.73976327 160.54452888 75.24653011 153.83390808 75.26742554 C151.97299782 75.28022049 151.97299782 75.28022049 150.07449341 75.29327393 C148.70745837 75.29257496 147.34042343 75.29165193 145.97338867 75.29052734 C144.52751825 75.29651458 143.08165101 75.30332057 141.63578796 75.31088257 C137.71416722 75.32853106 133.79263378 75.33323749 129.87097716 75.33451414 C127.41870389 75.33593707 124.96645273 75.34020939 122.51418495 75.34550858 C113.95272033 75.36400579 105.39131793 75.37217967 96.82983398 75.37060547 C88.85964526 75.36940449 80.88972752 75.3904989 72.91960734 75.4220928 C66.06846987 75.44827947 59.21742076 75.45897175 52.36623365 75.45769465 C48.27806239 75.45718567 44.19013197 75.46283302 40.10201073 75.48405075 C36.25479235 75.50347337 32.40804352 75.50353053 28.56080818 75.48901749 C27.15316962 75.48693317 25.74550135 75.49160781 24.33791351 75.5037384 C16.46652279 75.56715096 10.68017832 75.36493935 4 71 C-0.62284959 66.25549647 -2.24845561 61.71626192 -2.25878906 55.15576172 C-2.26509338 54.00461884 -2.27139771 52.85347595 -2.27789307 51.66744995 C-2.2738446 50.43398834 -2.26979614 49.20052673 -2.265625 47.9296875 C-2.26753845 46.65650665 -2.2694519 45.38332581 -2.27142334 44.07156372 C-2.27278318 41.38334486 -2.27010826 38.69549084 -2.26074219 36.00732422 C-2.24932505 32.56281412 -2.2559275 29.11861495 -2.26788712 25.67411613 C-2.27684942 22.3842954 -2.27057669 19.09451229 -2.265625 15.8046875 C-2.26967346 14.56717743 -2.27372192 13.32966736 -2.27789307 12.05465698 C-2.27158875 10.90981842 -2.26528442 9.76497986 -2.25878906 8.58544922 C-2.25719788 7.57682831 -2.25560669 6.5682074 -2.25396729 5.52902222 C-2 3 -2 3 0 0 Z " fill="#000000" transform="translate(14,108)"/>
<path d="M0 0 C0.81159576 -0.01283524 1.62319153 -0.02567047 2.4593811 -0.03889465 C3.33436249 -0.04628159 4.20934387 -0.05366852 5.11083984 -0.0612793 C6.01748383 -0.06935104 6.92412781 -0.07742279 7.85824585 -0.08573914 C9.7798268 -0.09957214 11.70143224 -0.1102978 13.62304688 -0.11816406 C16.54003597 -0.13531146 19.45587198 -0.17919645 22.37255859 -0.22338867 C24.24364405 -0.23352199 26.1147391 -0.24203609 27.98583984 -0.2487793 C28.84867584 -0.26628738 29.71151184 -0.28379547 30.60049438 -0.30183411 C38.71354861 -0.27325489 46.12601557 2.35624018 51.94677734 8.17700195 C56.80794164 14.86110287 58.1108955 19.65684763 58.00927734 27.92700195 C58.00476563 28.62438477 58.00025391 29.32176758 57.99560547 30.0402832 C57.98387755 31.75255998 57.96594387 33.46479229 57.94677734 35.17700195 C59.14689453 35.15605469 60.34701172 35.13510742 61.58349609 35.11352539 C66.06367927 35.04077009 70.54381089 34.99507363 75.02441406 34.95727539 C76.95842286 34.93724055 78.8923717 34.91000467 80.82617188 34.87524414 C83.61652477 34.82636624 86.40607236 34.80395176 89.19677734 34.78637695 C90.48007935 34.75540924 90.48007935 34.75540924 91.78930664 34.72381592 C97.65232473 34.72165637 102.05145851 35.86981056 106.94677734 39.17700195 C113.09697274 45.64259198 112.13299087 52.5815009 112.13208008 60.96533203 C112.13427265 63.23464542 112.15245805 65.50347728 112.17138672 67.77270508 C112.17431965 69.21085446 112.17630512 70.64900614 112.17724609 72.0871582 C112.18135498 73.39821533 112.18546387 74.70927246 112.18969727 76.06005859 C111.94677734 79.17700195 111.94677734 79.17700195 109.94677734 81.17700195 C107.32652013 81.3649211 104.8128642 81.42885981 102.19238281 81.40405273 C101.39229797 81.40434479 100.59221313 81.40463684 99.7678833 81.40493774 C97.11646781 81.40354151 94.4653314 81.38796665 91.81396484 81.37231445 C89.9783646 81.36858536 88.14276237 81.3657379 86.30715942 81.36373901 C81.47050503 81.35609436 76.63397031 81.33643875 71.79736328 81.31433105 C66.86411152 81.29389052 61.93084047 81.28474114 56.99755859 81.2746582 C47.31391219 81.25319362 37.63035471 81.21904767 27.94677734 81.17700195 C27.28677734 79.19700195 26.62677734 77.21700195 25.94677734 75.17700195 C20.00677734 75.17700195 14.06677734 75.17700195 7.94677734 75.17700195 C7.28677734 77.15700195 6.62677734 79.13700195 5.94677734 81.17700195 C-4.71013488 81.22327386 -15.36702333 81.2588449 -26.02401543 81.2806263 C-30.97210098 81.29107849 -35.92011797 81.30526378 -40.86816406 81.32788086 C-45.64029746 81.34955818 -50.41236479 81.36155976 -55.18454361 81.36675644 C-57.00827195 81.37046141 -58.83199654 81.37769595 -60.65569687 81.38846207 C-63.20348777 81.40290916 -65.75100308 81.40498276 -68.29882812 81.40405273 C-69.05839813 81.41124329 -69.81796814 81.41843384 -70.60055542 81.42584229 C-75.82511833 81.40510628 -75.82511833 81.40510628 -78.05322266 79.17700195 C-78.27738617 76.73795223 -78.38131478 74.41559869 -78.38916016 71.97387695 C-78.39581696 71.25846741 -78.40247375 70.54305786 -78.40933228 69.80596924 C-78.41946605 68.28953625 -78.42414907 66.77305861 -78.42382812 65.2565918 C-78.4281805 62.94935149 -78.46442916 60.64405714 -78.50244141 58.3371582 C-78.50831388 56.8619043 -78.51228039 55.38664134 -78.51416016 53.91137695 C-78.52853119 53.22678406 -78.54290222 52.54219116 -78.55770874 51.83685303 C-78.51012407 46.78104066 -77.36468093 43.96806879 -74.05322266 40.17700195 C-68.38379066 35.27795478 -63.40117367 34.47352114 -56.08447266 34.6887207 C-55.16355835 34.69579544 -54.24264404 34.70287018 -53.29382324 34.7101593 C-50.37943035 34.73793945 -47.46702554 34.80064504 -44.55322266 34.86450195 C-42.56627142 34.88960608 -40.57928979 34.91241553 -38.59228516 34.93286133 C-33.74517591 34.98771215 -28.89953523 35.07386866 -24.05322266 35.17700195 C-24.07388794 33.6321814 -24.07388794 33.6321814 -24.0949707 32.05615234 C-24.1061132 30.6914902 -24.11691902 29.32682527 -24.12744141 27.9621582 C-24.13739136 27.28495728 -24.14734131 26.60775635 -24.15759277 25.91003418 C-24.19990639 18.58977838 -22.66620728 13.16054577 -17.64697266 7.55981445 C-12.73414625 3.29721507 -6.54676415 0.09047606 0 0 Z M-2.53369141 21.52270508 C-4.96407124 25.25831431 -4.96407124 25.25831431 -4.05322266 35.17700195 C9.80677734 35.17700195 23.66677734 35.17700195 37.94677734 35.17700195 C38.85762593 25.25831431 38.85762593 25.25831431 36.42724609 21.52270508 C33.04938292 19.69014782 30.00973545 19.6030123 26.25927734 19.64575195 C25.5197583 19.64192505 24.78023926 19.63809814 24.01831055 19.63415527 C22.45831945 19.63143924 20.89828257 19.63877903 19.33837891 19.65551758 C16.95420548 19.67693522 14.57304486 19.65570932 12.18896484 19.63012695 C10.67072904 19.63277029 9.15249512 19.6378954 7.63427734 19.64575195 C6.92376221 19.63765503 6.21324707 19.62955811 5.48120117 19.62121582 C2.39753142 19.67946498 0.18727048 20.04652969 -2.53369141 21.52270508 Z " fill="#000000" transform="translate(83.05322265625,16.822998046875)"/>
</svg>
