<?xml version="1.0" encoding="UTF-8"?>
<svg version="1.1" xmlns="http://www.w3.org/2000/svg" width="500" height="500">
<path d="M0 0 C1.13179688 0.48082031 2.26359375 0.96164063 3.4296875 1.45703125 C6.125 3.1875 6.125 3.1875 6.79223633 5.35620117 C7.42384384 10.7301941 7.14272572 16.12456049 6.99291992 21.52246094 C6.93838203 23.65304257 6.90929008 25.78299593 6.88085938 27.9140625 C6.48651899 45.97248588 0.43605219 60.01719346 -11.703125 73.16796875 C-13.875 75.1875 -13.875 75.1875 -15.875 75.1875 C-16.37 76.6725 -16.37 76.6725 -16.875 78.1875 C-22.24642857 82.1875 -22.24642857 82.1875 -24.875 82.1875 C-24.875 82.8475 -24.875 83.5075 -24.875 84.1875 C-26.25981328 85.05941947 -27.65845246 85.90940384 -29.0625 86.75 C-29.83980469 87.22566406 -30.61710937 87.70132813 -31.41796875 88.19140625 C-34.35860967 89.38355797 -35.87946363 89.07605164 -38.875 88.1875 C-38.875 87.5275 -38.875 86.8675 -38.875 86.1875 C-40.2053125 85.81625 -40.2053125 85.81625 -41.5625 85.4375 C-45.00656256 84.13785375 -47.20524803 82.70020773 -49.875 80.1875 C-49.875 79.5275 -49.875 78.8675 -49.875 78.1875 C-50.8959375 77.9090625 -50.8959375 77.9090625 -51.9375 77.625 C-57.21642478 75.04169638 -61.74628036 70.15664296 -64.875 65.1875 C-64.875 64.5275 -64.875 63.8675 -64.875 63.1875 C-65.535 63.1875 -66.195 63.1875 -66.875 63.1875 C-67.82890668 61.44638878 -68.76201961 59.69388615 -69.6875 57.9375 C-70.20957031 56.96296875 -70.73164063 55.9884375 -71.26953125 54.984375 C-76.36999041 43.74178057 -76.25258923 32.50278651 -76.0625 20.4375 C-76.04741601 18.75782459 -76.03373422 17.07813597 -76.02148438 15.3984375 C-75.98879554 11.32779244 -75.93722231 7.25779633 -75.875 3.1875 C-51.66920932 -9.20378391 -25.17084965 -11.01587993 0 0 Z M-47.875 0.1875 C-47.545 1.1775 -47.215 2.1675 -46.875 3.1875 C-46.16480713 3.17178955 -45.45461426 3.1560791 -44.72290039 3.13989258 C-41.4611834 3.0769886 -38.19959463 3.03833463 -34.9375 3 C-33.82052734 2.97486328 -32.70355469 2.94972656 -31.55273438 2.92382812 C-24.69168483 2.86346699 -19.20462715 3.54246551 -12.875 6.1875 C-11.8746875 6.54972656 -10.874375 6.91195312 -9.84375 7.28515625 C-9.0290625 7.60355469 -8.214375 7.92195312 -7.375 8.25 C-6.12203125 8.73146484 -6.12203125 8.73146484 -4.84375 9.22265625 C-2.875 10.1875 -2.875 10.1875 -1.875 12.1875 C-1.215 12.1875 -0.555 12.1875 0.125 12.1875 C0.06018285 9.76111114 0.06018285 9.76111114 -0.875 7.1875 C-3.34114649 5.55186436 -3.34114649 5.55186436 -6.4375 4.5 C-7.44941406 4.10425781 -8.46132813 3.70851562 -9.50390625 3.30078125 C-18.25875004 0.40955242 -25.65430662 -0.06407763 -34.875 0.0625 C-36.12667969 0.07152344 -37.37835938 0.08054688 -38.66796875 0.08984375 C-41.7371801 0.11327284 -44.80598756 0.14607853 -47.875 0.1875 Z M-69.875 8.1875 C-70.13231307 12.66042286 -70.0602479 17.14557547 -70.0625 21.625 C-70.07474609 22.87216797 -70.08699219 24.11933594 -70.09960938 25.40429688 C-70.11503328 35.18819123 -69.57256367 43.82850756 -64.77734375 52.49609375 C-63.875 54.1875 -63.875 54.1875 -62.875 57.1875 C-62.215 57.1875 -61.555 57.1875 -60.875 57.1875 C-60.730625 57.80625 -60.58625 58.425 -60.4375 59.0625 C-59.94347775 61.22008322 -59.94347775 61.22008322 -58.875 63.1875 C-58.215 63.1875 -57.555 63.1875 -56.875 63.1875 C-56.875 63.8475 -56.875 64.5075 -56.875 65.1875 C-56.215 65.1875 -55.555 65.1875 -54.875 65.1875 C-54.875 65.8475 -54.875 66.5075 -54.875 67.1875 C-54.215 67.1875 -53.555 67.1875 -52.875 67.1875 C-52.875 67.8475 -52.875 68.5075 -52.875 69.1875 C-52.215 69.1875 -51.555 69.1875 -50.875 69.1875 C-50.875 69.8475 -50.875 70.5075 -50.875 71.1875 C-48.68318424 73.02340522 -46.50198911 74.70792043 -44.1875 76.375 C-43.56166016 76.85130859 -42.93582031 77.32761719 -42.29101562 77.81835938 C-38.620994 80.52016435 -38.620994 80.52016435 -34.23046875 81.1953125 C-31.49723136 80.02586765 -29.2776584 78.6281898 -26.875 76.875 C-26.00617188 76.24207031 -25.13734375 75.60914063 -24.2421875 74.95703125 C-23.46101563 74.37308594 -22.67984375 73.78914063 -21.875 73.1875 C-20.92625 72.48625 -19.9775 71.785 -19 71.0625 C-16.62592968 68.96773207 -14.81225213 66.68718017 -12.875 64.1875 C-12.1325 63.48625 -11.39 62.785 -10.625 62.0625 C-8.53384087 60.24943663 -8.53384087 60.24943663 -8.875 57.1875 C-8.215 57.1875 -7.555 57.1875 -6.875 57.1875 C-6.07093209 55.40136441 -5.28250363 53.60818751 -4.5 51.8125 C-3.83871094 50.31589844 -3.83871094 50.31589844 -3.1640625 48.7890625 C-0.16111058 40.39899683 0.4037312 32.41978247 0.25 23.5625 C0.24097656 22.55832031 0.23195313 21.55414063 0.22265625 20.51953125 C0.19937746 18.07525874 0.16668487 15.63151592 0.125 13.1875 C-0.535 13.1875 -1.195 13.1875 -1.875 13.1875 C-2.82388049 16.03414148 -3.01056413 17.87954535 -3.05078125 20.8359375 C-3.35729351 34.25410107 -3.87656753 46.14492557 -11.78515625 57.5390625 C-13.0425595 59.30469648 -13.0425595 59.30469648 -13.9375 62.0625 C-14.875 64.1875 -14.875 64.1875 -16.65234375 65.07421875 C-19.31886128 66.40982068 -21.1820434 68.10853134 -23.375 70.125 C-24.86508924 71.49006463 -26.36475704 72.84476638 -27.875 74.1875 C-28.4834375 74.78691406 -29.091875 75.38632812 -29.71875 76.00390625 C-33.06452693 77.84044685 -35.25764336 77.13509016 -38.875 76.1875 C-45.96793766 71.73492787 -54.05599258 64.82551484 -57.875 57.1875 C-58.535 57.1875 -59.195 57.1875 -59.875 57.1875 C-60.019375 56.56875 -60.16375 55.95 -60.3125 55.3125 C-60.80652225 53.15491678 -60.80652225 53.15491678 -61.875 51.1875 C-62.535 51.1875 -63.195 51.1875 -63.875 51.1875 C-63.545 50.1975 -63.215 49.2075 -62.875 48.1875 C-63.41114251 45.19351038 -63.41114251 45.19351038 -64.3125 42 C-64.828125 40.081875 -65.34375 38.16375 -65.875 36.1875 C-61.255 36.1875 -56.635 36.1875 -51.875 36.1875 C-51.359375 34.599375 -50.84375 33.01125 -50.3125 31.375 C-50.02246094 30.48167969 -49.73242188 29.58835937 -49.43359375 28.66796875 C-48.62520444 26.07534861 -48.62520444 26.07534861 -49.875 23.1875 C-48.555 23.1875 -47.235 23.1875 -45.875 23.1875 C-45.8325415 23.84016846 -45.79008301 24.49283691 -45.74633789 25.1652832 C-45.19251764 32.40464226 -43.9315848 39.30454283 -42.3125 46.375 C-42.07853516 47.42236328 -41.84457031 48.46972656 -41.60351562 49.54882812 C-41.03348767 52.0965041 -40.45725164 54.64259518 -39.875 57.1875 C-39.215 57.1875 -38.555 57.1875 -37.875 57.1875 C-37.03496552 54.4393872 -36.20277849 51.68930419 -35.375 48.9375 C-35.13652344 48.16019531 -34.89804688 47.38289063 -34.65234375 46.58203125 C-34.42675781 45.82792969 -34.20117188 45.07382813 -33.96875 44.296875 C-33.65454102 43.25998535 -33.65454102 43.25998535 -33.33398438 42.20214844 C-32.72691216 39.88186736 -32.72691216 39.88186736 -32.875 36.1875 C-30.24972811 36.13367894 -27.62555287 36.09391687 -25 36.0625 C-24.25363281 36.04574219 -23.50726563 36.02898437 -22.73828125 36.01171875 C-20.78305539 35.9941041 -18.82757979 36.08429811 -16.875 36.1875 C-16.215 36.8475 -15.555 37.5075 -14.875 38.1875 C-13.555 38.1875 -12.235 38.1875 -10.875 38.1875 C-10.49281233 36.53135343 -10.16104898 34.86292976 -9.875 33.1875 C-10.94145115 31.89116379 -10.94145115 31.89116379 -13.4375 32.125 C-14.241875 32.145625 -15.04625 32.16625 -15.875 32.1875 C-15.875 32.8475 -15.875 33.5075 -15.875 34.1875 C-21.815 34.1875 -27.755 34.1875 -33.875 34.1875 C-34.349375 35.59 -34.82375 36.9925 -35.3125 38.4375 C-35.57933594 39.22640625 -35.84617188 40.0153125 -36.12109375 40.828125 C-36.90542046 43.14619759 -36.90542046 43.14619759 -37.34765625 45.421875 C-37.52167969 46.00453125 -37.69570312 46.5871875 -37.875 47.1875 C-38.865 47.6825 -38.865 47.6825 -39.875 48.1875 C-39.9174585 47.53483154 -39.95991699 46.88216309 -40.00366211 46.2097168 C-40.55748236 38.97035774 -41.8184152 32.07045717 -43.4375 25 C-43.67146484 23.95263672 -43.90542969 22.90527344 -44.14648438 21.82617188 C-44.71651233 19.2784959 -45.29274836 16.73240482 -45.875 14.1875 C-46.535 14.1875 -47.195 14.1875 -47.875 14.1875 C-48.68936587 16.60355225 -49.50155397 19.02029998 -50.3125 21.4375 C-50.54259766 22.11941406 -50.77269531 22.80132812 -51.00976562 23.50390625 C-52.08676956 26.7193093 -53.05185147 29.89490587 -53.875 33.1875 C-60.31 33.6825 -60.31 33.6825 -66.875 34.1875 C-66.92893279 30.60396559 -66.96864225 27.02124244 -67 23.4375 C-67.01675781 22.42171875 -67.03351563 21.4059375 -67.05078125 20.359375 C-67.06044922 18.88984375 -67.06044922 18.88984375 -67.0703125 17.390625 C-67.08078613 16.48989258 -67.09125977 15.58916016 -67.10205078 14.66113281 C-66.85700779 11.9914816 -66.37295966 10.40492997 -64.875 8.1875 C-61.94140625 7.24609375 -61.94140625 7.24609375 -58.4375 6.625 C-52.91284009 5.74336327 -52.91284009 5.74336327 -48.875 2.1875 C-55.72555519 1.52879277 -64.78567802 3.09817802 -69.875 8.1875 Z " fill="#191919" transform="translate(284.875,186.8125)"/>
<path d="M0 0 C1.32 0 2.64 0 4 0 C4.85945487 4.19822369 5.71380084 8.3974452 6.56347656 12.59765625 C6.85309727 14.02567424 7.14409968 15.45341274 7.43652344 16.88085938 C7.8571757 18.93547382 8.27281025 20.99104992 8.6875 23.046875 C8.93886719 24.28276367 9.19023437 25.51865234 9.44921875 26.79199219 C10 30 10 30 10 34 C10.66 34 11.32 34 12 34 C12.19335938 33.07058594 12.38671875 32.14117187 12.5859375 31.18359375 C12.84632813 29.94738281 13.10671875 28.71117187 13.375 27.4375 C13.63023437 26.21933594 13.88546875 25.00117188 14.1484375 23.74609375 C14.97501833 20.10989643 15.94212118 16.57379061 17 13 C19.62450086 12.77880061 22.24870486 12.57253331 24.875 12.375 C25.62136719 12.31054688 26.36773437 12.24609375 27.13671875 12.1796875 C29.0870047 12.03912635 31.04469467 12.01240151 33 12 C33.66 12.66 34.32 13.32 35 14 C37.06874034 14.6425235 37.06874034 14.6425235 39 15 C39.33 12.36 39.66 9.72 40 7 C40.66 7 41.32 7 42 7 C42.66 7.99 43.32 8.98 44 10 C45.96822886 8.03177114 45.66248381 4.65191291 46 2 C46.33 2 46.66 2 47 2 C47.75576567 14.82702285 45.38991444 25.43636055 38 36 C37.566875 36.80050781 37.13375 37.60101563 36.6875 38.42578125 C34.67663838 41.49327618 32.42365194 43.40090775 29.5625 45.6875 C28.61503906 46.45449219 27.66757812 47.22148437 26.69140625 48.01171875 C24 50 24 50 21.71484375 51.08203125 C19.63785559 51.94119072 19.63785559 51.94119072 19 55 C11.47829875 55.6176177 7.54739948 51.60583238 2 47 C-2.52869723 42.99806561 -5.98779726 39.79634521 -8 34 C-8.66 34 -9.32 34 -10 34 C-10.66 32.02 -11.32 30.04 -12 28 C-12.66 28 -13.32 28 -14 28 C-14.33951619 26.43883181 -14.67132544 24.87598662 -15 23.3125 C-15.185625 22.44238281 -15.37125 21.57226562 -15.5625 20.67578125 C-16 18 -16 18 -16 13 C-11.38 13 -6.76 13 -2 13 C-1.34 8.71 -0.68 4.42 0 0 Z " fill="#191919" transform="translate(235,210)"/>
<path d="M0 0 C1.71509766 0.80824219 1.71509766 0.80824219 3.46484375 1.6328125 C4.32207031 2.04273438 5.17929687 2.45265625 6.0625 2.875 C4.7425 3.535 3.4225 4.195 2.0625 4.875 C1.5675 3.885 1.5675 3.885 1.0625 2.875 C-0.2575 3.205 -1.5775 3.535 -2.9375 3.875 C-1.9475 5.36 -1.9475 5.36 -0.9375 6.875 C-10.9375 3.875 -10.9375 3.875 -13.00634766 3.12426758 C-20.48601254 0.56089036 -27.70451554 0.32912176 -35.5625 0.1875 C-36.85285156 0.15333984 -38.14320313 0.11917969 -39.47265625 0.08398438 C-42.62751717 0.00219168 -45.7821241 -0.06718232 -48.9375 -0.125 C-48.9375 0.535 -48.9375 1.195 -48.9375 1.875 C-49.54335937 1.97296875 -50.14921875 2.0709375 -50.7734375 2.171875 C-51.61132812 2.32140625 -52.44921875 2.4709375 -53.3125 2.625 C-54.53066406 2.83382812 -54.53066406 2.83382812 -55.7734375 3.046875 C-60.32861187 4.23909348 -64.59805897 6.06255126 -68.9375 7.875 C-68.99617342 12.3332769 -69.03132135 16.79145273 -69.0625 21.25 C-69.07925781 22.50167969 -69.09601563 23.75335938 -69.11328125 25.04296875 C-69.16482779 34.88835777 -68.69865926 43.51881283 -63.7421875 52.18359375 C-62.9375 53.875 -62.9375 53.875 -62.9375 56.875 C-62.2775 56.875 -61.6175 56.875 -60.9375 56.875 C-60.2775 58.855 -59.6175 60.835 -58.9375 62.875 C-58.2775 62.875 -57.6175 62.875 -56.9375 62.875 C-56.9375 63.535 -56.9375 64.195 -56.9375 64.875 C-56.2775 64.875 -55.6175 64.875 -54.9375 64.875 C-54.9375 65.535 -54.9375 66.195 -54.9375 66.875 C-54.2775 66.875 -53.6175 66.875 -52.9375 66.875 C-52.9375 67.535 -52.9375 68.195 -52.9375 68.875 C-52.2775 68.875 -51.6175 68.875 -50.9375 68.875 C-50.9375 69.535 -50.9375 70.195 -50.9375 70.875 C-50.37933594 71.12894531 -49.82117188 71.38289063 -49.24609375 71.64453125 C-45.70270765 73.53313805 -42.64661141 76.0637997 -39.47265625 78.51171875 C-37.05038883 80.087895 -37.05038883 80.087895 -34.44140625 79.79296875 C-31.52272107 78.72293596 -29.328902 77.3238143 -26.8125 75.5 C-25.96429688 74.89414062 -25.11609375 74.28828125 -24.2421875 73.6640625 C-21.95944597 71.97736003 -21.95944597 71.97736003 -20.2578125 70.1484375 C-18.9375 68.875 -18.9375 68.875 -16.9375 68.875 C-16.56625 67.946875 -16.56625 67.946875 -16.1875 67 C-14.9375 64.875 -14.9375 64.875 -12.9375 64 C-10.59062369 62.9550808 -10.59062369 62.9550808 -9.6875 59.75 C-9.31625 58.326875 -9.31625 58.326875 -8.9375 56.875 C-8.2775 56.875 -7.6175 56.875 -6.9375 56.875 C-6.6075 54.565 -6.2775 52.255 -5.9375 49.875 C-5.2775 49.875 -4.6175 49.875 -3.9375 49.875 C-3.80472656 48.95976562 -3.67195313 48.04453125 -3.53515625 47.1015625 C-3.35855469 45.91304687 -3.18195313 44.72453125 -3 43.5 C-2.82597656 42.31664062 -2.65195312 41.13328125 -2.47265625 39.9140625 C-1.9375 36.875 -1.9375 36.875 -0.9375 34.875 C-0.71282169 33.33831135 -0.52953195 31.79531946 -0.375 30.25 C-0.24931641 29.02410156 -0.24931641 29.02410156 -0.12109375 27.7734375 C-0.06050781 27.14695313 0.00007813 26.52046875 0.0625 25.875 C0.3925 25.875 0.7225 25.875 1.0625 25.875 C1.22526042 27.89322917 1.38802083 29.91145833 1.55078125 31.9296875 C1.93643036 34.27019216 1.93643036 34.27019216 5.0625 35.875 C5.0625 34.225 5.0625 32.575 5.0625 30.875 C5.3925 30.875 5.7225 30.875 6.0625 30.875 C7.00692856 44.80532119 1.24904252 58.15194091 -7.82958984 68.55419922 C-9.80128446 70.74426202 -11.77861818 72.86755054 -13.9375 74.875 C-14.5975 74.875 -15.2575 74.875 -15.9375 74.875 C-16.4325 76.36 -16.4325 76.36 -16.9375 77.875 C-22.30892857 81.875 -22.30892857 81.875 -24.9375 81.875 C-24.9375 82.535 -24.9375 83.195 -24.9375 83.875 C-26.32231328 84.74691947 -27.72095246 85.59690384 -29.125 86.4375 C-29.90230469 86.91316406 -30.67960937 87.38882813 -31.48046875 87.87890625 C-34.42110967 89.07105797 -35.94196363 88.76355164 -38.9375 87.875 C-38.9375 87.215 -38.9375 86.555 -38.9375 85.875 C-40.2678125 85.50375 -40.2678125 85.50375 -41.625 85.125 C-45.06906256 83.82535375 -47.26774803 82.38770773 -49.9375 79.875 C-49.9375 79.215 -49.9375 78.555 -49.9375 77.875 C-50.9584375 77.5965625 -50.9584375 77.5965625 -52 77.3125 C-57.27892478 74.72919638 -61.80878036 69.84414296 -64.9375 64.875 C-64.9375 64.215 -64.9375 63.555 -64.9375 62.875 C-65.5975 62.875 -66.2575 62.875 -66.9375 62.875 C-67.89140668 61.13388878 -68.82451961 59.38138615 -69.75 57.625 C-70.27207031 56.65046875 -70.79414063 55.6759375 -71.33203125 54.671875 C-76.43249041 43.42928057 -76.31508923 32.19028651 -76.125 20.125 C-76.10991601 18.44532459 -76.09623422 16.76563597 -76.08398438 15.0859375 C-76.05129554 11.01529244 -75.99972231 6.94529633 -75.9375 2.875 C-51.93710533 -9.41113881 -24.78265891 -11.75260113 0 0 Z " fill="#2B2B2B" transform="translate(284.9375,187.125)"/>
<path d="M0 0 C2.31 0 4.62 0 7 0 C7.33 1.98 7.66 3.96 8 6 C9.03640625 5.91621094 10.0728125 5.83242188 11.140625 5.74609375 C12.51039132 5.64289218 13.88018447 5.54004626 15.25 5.4375 C15.93191406 5.38142578 16.61382812 5.32535156 17.31640625 5.26757812 C20.79577024 5.01422638 23.6554538 5.04441537 27 6 C29.34114367 5.72686657 31.67750658 5.40197001 34 5 C38.94096084 10.55858095 38.4185231 15.8153535 38 23 C35.3333581 24.33332095 33.83319697 23.67102033 31 23 C31.061875 21.906875 31.12375 20.81375 31.1875 19.6875 C31.39922928 15.72894302 31.39922928 15.72894302 28 13 C27.67 16.3 27.34 19.6 27 23 C25.02 23 23.04 23 21 23 C21 19.37 21 15.74 21 12 C19.68 12.33 18.36 12.66 17 13 C16.67 16.3 16.34 19.6 16 23 C14.34385343 23.38218767 12.67542976 23.71395102 11 24 C8.76357738 21.76357738 9.48107795 16.71346616 9.28125 13.6875 C9.29392201 11.08403248 9.29392201 11.08403248 8 10 C7.67 14.29 7.34 18.58 7 23 C-4.49764151 24.37971698 -4.49764151 24.37971698 -8 23 C-10.23269455 21.15225278 -10.8904615 19.72669441 -11.3203125 16.875 C-11.50988214 13.03305536 -11.50010278 10.74089301 -9.3125 7.5 C-6.781129 5.85802962 -4.99988123 5.23683273 -2 5 C-1.34 5.33 -0.68 5.66 0 6 C0 4.02 0 2.04 0 0 Z M-5 12 C-5 13.98 -5 15.96 -5 18 C-3.35 18 -1.7 18 0 18 C0.66 16.68 1.32 15.36 2 14 C0.62514468 12.45833358 0.62514468 12.45833358 -1 11 C-3.0745356 10.8509288 -3.0745356 10.8509288 -5 12 Z " fill="#303030" transform="translate(190,289)"/>
<path d="M0 0 C1.71509766 0.80824219 1.71509766 0.80824219 3.46484375 1.6328125 C4.32207031 2.04273438 5.17929687 2.45265625 6.0625 2.875 C4.7425 3.535 3.4225 4.195 2.0625 4.875 C1.5675 3.885 1.5675 3.885 1.0625 2.875 C-0.2575 3.205 -1.5775 3.535 -2.9375 3.875 C-1.9475 5.36 -1.9475 5.36 -0.9375 6.875 C-10.9375 3.875 -10.9375 3.875 -13.00634766 3.12426758 C-20.48601254 0.56089036 -27.70451554 0.32912176 -35.5625 0.1875 C-36.85285156 0.15333984 -38.14320313 0.11917969 -39.47265625 0.08398438 C-42.62751717 0.00219168 -45.7821241 -0.06718232 -48.9375 -0.125 C-48.9375 0.535 -48.9375 1.195 -48.9375 1.875 C-49.54335937 1.97296875 -50.14921875 2.0709375 -50.7734375 2.171875 C-57.25271623 3.32817705 -62.88870288 5.28265838 -68.9375 7.875 C-69.2675 11.505 -69.5975 15.135 -69.9375 18.875 C-70.2675 18.875 -70.5975 18.875 -70.9375 18.875 C-70.97488281 18.24851563 -71.01226562 17.62203125 -71.05078125 16.9765625 C-71.11652344 16.15929687 -71.18226563 15.34203125 -71.25 14.5 C-71.33701172 13.28183594 -71.33701172 13.28183594 -71.42578125 12.0390625 C-71.76740528 9.49578662 -71.76740528 9.49578662 -74.9375 7.875 C-74.9375 17.115 -74.9375 26.355 -74.9375 35.875 C-75.2675 35.875 -75.5975 35.875 -75.9375 35.875 C-75.9375 24.985 -75.9375 14.095 -75.9375 2.875 C-51.72897933 -9.22926034 -24.96161263 -11.83746578 0 0 Z M-73.9375 9.875 C-73.2775 9.875 -72.6175 9.875 -71.9375 9.875 C-72.2675 10.535 -72.5975 11.195 -72.9375 11.875 C-73.2675 11.215 -73.5975 10.555 -73.9375 9.875 Z " fill="#1A1A1A" transform="translate(284.9375,187.125)"/>
<path d="M0 0 C1.93102932 0.60376707 1.93102932 0.60376707 3.84765625 -0.61328125 C10.87221171 -1.30422113 10.87221171 -1.30422113 14.84765625 1.51171875 C17.14508367 4.81427066 17.30526784 6.45125905 16.84765625 10.38671875 C16.18765625 10.71671875 15.52765625 11.04671875 14.84765625 11.38671875 C14.19210506 13.9140511 14.19210506 13.9140511 13.84765625 16.38671875 C10.77351339 17.41143304 8.07964716 18.11738617 4.84765625 18.38671875 C3.16015625 17.01171875 3.16015625 17.01171875 1.84765625 15.38671875 C0.85765625 15.05671875 -0.13234375 14.72671875 -1.15234375 14.38671875 C-1.73822266 15.11955078 -1.73822266 15.11955078 -2.3359375 15.8671875 C-4.72727482 17.86768259 -6.13493047 17.75818616 -9.21484375 17.69921875 C-10.09269531 17.69535156 -10.97054688 17.69148438 -11.875 17.6875 C-14.15234375 17.38671875 -14.15234375 17.38671875 -16.15234375 15.38671875 C-16.15234375 14.06671875 -16.15234375 12.74671875 -16.15234375 11.38671875 C-15.16234375 11.05671875 -14.17234375 10.72671875 -13.15234375 10.38671875 C-14.14234375 9.72671875 -15.13234375 9.06671875 -16.15234375 8.38671875 C-16.65234375 5.51171875 -16.65234375 5.51171875 -16.15234375 2.38671875 C-11.71062886 -3.20124514 -6.17139541 -1.75845568 0 0 Z M-3.15234375 5.38671875 C-3.48234375 6.04671875 -3.81234375 6.70671875 -4.15234375 7.38671875 C-3.49234375 7.38671875 -2.83234375 7.38671875 -2.15234375 7.38671875 C-1.82234375 8.04671875 -1.49234375 8.70671875 -1.15234375 9.38671875 C-1.15234375 8.06671875 -1.15234375 6.74671875 -1.15234375 5.38671875 C-1.81234375 5.38671875 -2.47234375 5.38671875 -3.15234375 5.38671875 Z M6.84765625 4.38671875 C6.18765625 5.04671875 5.52765625 5.70671875 4.84765625 6.38671875 C6.49765625 6.38671875 8.14765625 6.38671875 9.84765625 6.38671875 C8.85765625 5.72671875 7.86765625 5.06671875 6.84765625 4.38671875 Z M6.84765625 10.38671875 C6.84765625 10.71671875 6.84765625 11.04671875 6.84765625 11.38671875 C8.49765625 11.38671875 10.14765625 11.38671875 11.84765625 11.38671875 C11.84765625 11.05671875 11.84765625 10.72671875 11.84765625 10.38671875 C10.19765625 10.38671875 8.54765625 10.38671875 6.84765625 10.38671875 Z " fill="#1A1A1A" transform="translate(323.15234375,295.61328125)"/>
<path d="M0 0 C2.33294775 -0.04241723 4.66702567 -0.04092937 7 0 C8 1 8 1 8.11352539 3.13305664 C8.10828857 4.04949951 8.10305176 4.96594238 8.09765625 5.91015625 C8.09443359 6.89951172 8.09121094 7.88886719 8.08789062 8.90820312 C8.07951172 9.94912109 8.07113281 10.99003906 8.0625 12.0625 C8.05798828 13.10728516 8.05347656 14.15207031 8.04882812 15.22851562 C8.03699913 17.8190666 8.02051689 20.40950559 8 23 C2.17560508 23.80915468 -3.20015952 24.0378249 -9.0625 23.5625 C-10.37347656 23.46066406 -11.68445313 23.35882813 -13.03515625 23.25390625 C-14.01355469 23.17011719 -14.99195313 23.08632813 -16 23 C-19.26584133 16.99085195 -19.11477625 12.67522647 -18 6 C-16.02 6 -14.04 6 -12 6 C-11.67 9.63 -11.34 13.26 -11 17 C-7.79920271 13.83508087 -7.79920271 13.83508087 -7.3125 9.8125 C-7.1578125 7.9253125 -7.1578125 7.9253125 -7 6 C-5.02 6 -3.04 6 -1 6 C-1 7.65 -1 9.3 -1 11 C-0.01 11 0.98 11 2 11 C1.34 7.37 0.68 3.74 0 0 Z M0 15 C-0.93065133 17.60582371 -1.14917407 18.64198224 -0.0625 21.25 C0.288125 21.8275 0.63875 22.405 1 23 C1.33 23 1.66 23 2 23 C2 20.69 2 18.38 2 16 C1.34 15.67 0.68 15.34 0 15 Z " fill="#313131" transform="translate(298,289)"/>
<path d="M0 0 C0.33 0 0.66 0 1 0 C1.16276042 2.01822917 1.32552083 4.03645833 1.48828125 6.0546875 C1.87393036 8.39519216 1.87393036 8.39519216 5 10 C5 8.35 5 6.7 5 5 C5.33 5 5.66 5 6 5 C6.94214346 18.89661608 1.21211272 32.24128492 -7.84326172 42.63037109 C-13.38871501 48.79623834 -13.38871501 48.79623834 -17 50 C-17.66 48.68 -18.32 47.36 -19 46 C-19.99 46 -20.98 46 -22 46 C-20.625 44.5 -20.625 44.5 -19 43 C-18.34 43 -17.68 43 -17 43 C-16.7525 42.38125 -16.505 41.7625 -16.25 41.125 C-15 39 -15 39 -13 38.125 C-10.65312369 37.0800808 -10.65312369 37.0800808 -9.75 33.875 C-9.5025 32.92625 -9.255 31.9775 -9 31 C-8.34 31 -7.68 31 -7 31 C-6.67 28.69 -6.34 26.38 -6 24 C-5.34 24 -4.68 24 -4 24 C-3.86722656 23.08476562 -3.73445313 22.16953125 -3.59765625 21.2265625 C-3.42105469 20.03804687 -3.24445313 18.84953125 -3.0625 17.625 C-2.88847656 16.44164062 -2.71445312 15.25828125 -2.53515625 14.0390625 C-2 11 -2 11 -1 9 C-0.77532169 7.46331135 -0.59203195 5.92031946 -0.4375 4.375 C-0.35371094 3.55773437 -0.26992188 2.74046875 -0.18359375 1.8984375 C-0.09271484 0.95871094 -0.09271484 0.95871094 0 0 Z " fill="#404040" transform="translate(285,213)"/>
<path d="M0 0 C0.99 0 1.98 0 3 0 C3 0.66 3 1.32 3 2 C3.763125 1.9175 4.52625 1.835 5.3125 1.75 C8 2 8 2 9.8125 3.5625 C11.45095998 6.92565469 11.38971822 9.29767686 11 13 C9.5 15.9375 9.5 15.9375 8 18 C4.7 17.67 1.4 17.34 -2 17 C-1.67 19.31 -1.34 21.62 -1 24 C-2.65614657 24.38218767 -4.32457024 24.71395102 -6 25 C-7 24 -7 24 -7.11352539 21.86694336 C-7.10828857 20.95050049 -7.10305176 20.03405762 -7.09765625 19.08984375 C-7.09443359 18.10048828 -7.09121094 17.11113281 -7.08789062 16.09179688 C-7.07951172 15.05087891 -7.07113281 14.00996094 -7.0625 12.9375 C-7.05798828 11.89271484 -7.05347656 10.84792969 -7.04882812 9.77148438 C-7.03699913 7.1809334 -7.02051689 4.59049441 -7 2 C-4.69 2 -2.38 2 0 2 C0 1.34 0 0.68 0 0 Z M-2 9 C-2 9.99 -2 10.98 -2 12 C0.31 12 2.62 12 5 12 C4.34 10.02 3.68 8.04 3 6 C0.9095656 6 -0.51380723 7.70557404 -2 9 Z " fill="#272627" transform="translate(267,289)"/>
<path d="M0 0 C2.97 0.495 2.97 0.495 6 1 C6 7.93 6 14.86 6 22 C4.35 22.33 2.7 22.66 1 23 C-0.155 23.28875 -1.31 23.5775 -2.5 23.875 C-6 24 -6 24 -8.9375 22.125 C-11.6594421 18.0008453 -11.97218471 14.81591501 -11 10 C-9.00820022 7.04918552 -7.75341282 6.23319921 -4.375 5.1875 C-2 5 -2 5 0 6 C0 4.02 0 2.04 0 0 Z M-5 12 C-5 13.98 -5 15.96 -5 18 C-3.35 18 -1.7 18 0 18 C0.66 16.68 1.32 15.36 2 14 C0.62514468 12.45833358 0.62514468 12.45833358 -1 11 C-3.0745356 10.8509288 -3.0745356 10.8509288 -5 12 Z " fill="#202020" transform="translate(190,289)"/>
<path d="M0 0 C2.63514996 3.41409366 2.2019876 7.09266969 2.125 11.25 C2.10695312 12.51328125 2.08890625 13.7765625 2.0703125 15.078125 C2.04710937 16.04234375 2.02390625 17.0065625 2 18 C1.34 18.33 0.68 18.66 0 19 C0 18.34 0 17.68 0 17 C-0.83144531 17.11859375 -1.66289062 17.2371875 -2.51953125 17.359375 C-3.60621094 17.48828125 -4.69289062 17.6171875 -5.8125 17.75 C-6.89144531 17.88921875 -7.97039062 18.0284375 -9.08203125 18.171875 C-12 18 -12 18 -13.9375 16.46875 C-15.45132027 12.95134407 -14.84525065 10.48879316 -14.1875 6.75 C-13.97480469 5.48671875 -13.76210937 4.2234375 -13.54296875 2.921875 C-13.36378906 1.95765625 -13.18460938 0.9934375 -13 0 C-11.58456585 -0.19658808 -10.16755969 -0.38187546 -8.75 -0.5625 C-7.96109375 -0.66691406 -7.1721875 -0.77132813 -6.359375 -0.87890625 C-3.89630453 -1.00532212 -2.27261013 -0.9663449 0 0 Z " fill="#1E1E1E" transform="translate(175,295)"/>
<path d="M0 0 C2.41734542 -0.08117951 4.83194949 -0.14056926 7.25 -0.1875 C7.93191406 -0.21263672 8.61382812 -0.23777344 9.31640625 -0.26367188 C12.32268984 -0.3074527 14.69426048 -0.1315841 17.46875 1.0625 C19.80935427 4.02408092 19.38588522 6.48462766 19.25 10.1875 C19.21390625 11.45980469 19.1778125 12.73210937 19.140625 14.04296875 C19.07101562 15.50669922 19.07101562 15.50669922 19 17 C15.25 18.125 15.25 18.125 13 17 C12.5859375 14.93359375 12.5859375 14.93359375 12.375 12.4375 C12.30023438 11.61121094 12.22546875 10.78492188 12.1484375 9.93359375 C12.09945312 9.29550781 12.05046875 8.65742188 12 8 C11.01 7.67 10.02 7.34 9 7 C8.67 10.63 8.34 14.26 8 18 C6.02 17.67 4.04 17.34 2 17 C2 13.04 2 9.08 2 5 C1.34 5 0.68 5 0 5 C0 3.35 0 1.7 0 0 Z " fill="#373737" transform="translate(237,295)"/>
<path d="M0 0 C12.58403512 1.64063703 22.54473035 4.52214173 34 10 C32.02 10.99 32.02 10.99 30 12 C29.505 11.01 29.505 11.01 29 10 C27.68 10.33 26.36 10.66 25 11 C25.66 11.99 26.32 12.98 27 14 C17 11 17 11 14.80810547 10.24926758 C8.43913903 8.15130706 2.55834803 7.47676768 -4.125 7.3125 C-5.08148438 7.27833984 -6.03796875 7.24417969 -7.0234375 7.20898438 C-9.34884073 7.12759526 -11.67391876 7.05810388 -14 7 C-14 6.67 -14 6.34 -14 6 C-7.565 5.505 -7.565 5.505 -1 5 C-0.67 3.35 -0.34 1.7 0 0 Z " fill="#484848" transform="translate(257,180)"/>
<path d="M0 0 C1.875 0.3125 1.875 0.3125 4 1 C4.7425 1.185625 5.485 1.37125 6.25 1.5625 C6.8275 1.706875 7.405 1.85125 8 2 C8.96451148 5.19127494 9.06277203 7.92364082 8.9140625 11.24609375 C8.87023437 12.24833984 8.82640625 13.25058594 8.78125 14.28320312 C8.7296875 15.32412109 8.678125 16.36503906 8.625 17.4375 C8.58117187 18.47455078 8.53734375 19.51160156 8.4921875 20.58007812 C8.28020002 25.16430744 7.9921466 29.50899116 7 34 C5.05078125 33.23828125 5.05078125 33.23828125 3 32 C1.8395123 26.55463463 2.06278036 21.8336232 2.625 16.3125 C3.08598028 11.31757439 3.06808719 8.20441578 0 4 C-0.66 3.34 -1.32 2.68 -2 2 C-1.34 1.34 -0.68 0.68 0 0 Z " fill="#0D0D0D" transform="translate(283,189)"/>
<path d="M0 0 C1.32 0 2.64 0 4 0 C4.33 1.98 4.66 3.96 5 6 C9.95 5.67 14.9 5.34 20 5 C20 5.66 20 6.32 20 7 C19.38125 7.2475 18.7625 7.495 18.125 7.75 C15.54179627 9.26953161 15.1084082 10.24809 14 13 C13.54935368 15.58532701 13.54935368 15.58532701 13.375 18.25 C13.30023438 19.14203125 13.22546875 20.0340625 13.1484375 20.953125 C13.09945312 21.62859375 13.05046875 22.3040625 13 23 C11.34385343 23.38218767 9.67542976 23.71395102 8 24 C5.76357738 21.76357738 6.48107795 16.71346616 6.28125 13.6875 C6.29392201 11.08403248 6.29392201 11.08403248 5 10 C4.67 14.29 4.34 18.58 4 23 C0.04 23.495 0.04 23.495 -4 24 C-3.34 23.67 -2.68 23.34 -2 23 C-1.67 22.34 -1.34 21.68 -1 21 C0.32 21.33 1.64 21.66 3 22 C3 15.07 3 8.14 3 1 C2.01 0.67 1.02 0.34 0 0 Z " fill="#515151" transform="translate(193,289)"/>
<path d="M0 0 C2.33294775 -0.04241723 4.66702567 -0.04092937 7 0 C8 1 8 1 8.11352539 3.13305664 C8.10828857 4.04949951 8.10305176 4.96594238 8.09765625 5.91015625 C8.09443359 6.89951172 8.09121094 7.88886719 8.08789062 8.90820312 C8.07951172 9.94912109 8.07113281 10.99003906 8.0625 12.0625 C8.05798828 13.10728516 8.05347656 14.15207031 8.04882812 15.22851562 C8.03699913 17.8190666 8.02051689 20.40950559 8 23 C6.02 23 4.04 23 2 23 C1.67 20.69 1.34 18.38 1 16 C0.67 16 0.34 16 0 16 C-0.33 17.65 -0.66 19.3 -1 21 C-1.33 21 -1.66 21 -2 21 C-2 16.38 -2 11.76 -2 7 C-2.99 6.67 -3.98 6.34 -5 6 C-3.68 6 -2.36 6 -1 6 C-1 7.65 -1 9.3 -1 11 C-0.01 11 0.98 11 2 11 C1.34 7.37 0.68 3.74 0 0 Z " fill="#3F4040" transform="translate(298,289)"/>
<path d="M0 0 C0 1.32 0 2.64 0 4 C-1.98 4.99 -1.98 4.99 -4 6 C-3.67 6.33 -3.34 6.66 -3 7 C-2.70613847 10.72224599 -2.85190829 11.77786243 -5 15 C-8.125 15.1875 -8.125 15.1875 -11 15 C-10.34 14.67 -9.68 14.34 -9 14 C-8.27306096 12.02111039 -7.60183749 10.02045442 -7 8 C-8.32 8 -9.64 8 -11 8 C-11 7.34 -11 6.68 -11 6 C-12.98 6.99 -12.98 6.99 -15 8 C-16 7 -16 7 -16.3125 4.125 C-16 1 -16 1 -14.5625 -0.9375 C-9.80984283 -2.90811395 -4.75296751 -1.5843225 0 0 Z " fill="#131313" transform="translate(324,296)"/>
<path d="M0 0 C1.98 0 3.96 0 6 0 C6.33 0.99 6.66 1.98 7 3 C6.34 3 5.68 3 5 3 C5 3.66 5 4.32 5 5 C5.66 5.33 6.32 5.66 7 6 C6.34 7.65 5.68 9.3 5 11 C6.65 11 8.3 11 10 11 C8.625 13 8.625 13 7 15 C6.34 15 5.68 15 5 15 C5.33 17.31 5.66 19.62 6 22 C4.34385343 22.38218767 2.67542976 22.71395102 1 23 C0 22 0 22 -0.11352539 19.86694336 C-0.10828857 18.95050049 -0.10305176 18.03405762 -0.09765625 17.08984375 C-0.09443359 16.10048828 -0.09121094 15.11113281 -0.08789062 14.09179688 C-0.07951172 13.05087891 -0.07113281 12.00996094 -0.0625 10.9375 C-0.05798828 9.89271484 -0.05347656 8.84792969 -0.04882812 7.77148438 C-0.03699913 5.1809334 -0.02051689 2.59049441 0 0 Z " fill="#0F0F0F" transform="translate(260,291)"/>
<path d="M0 0 C4 2 4 2 4.60717773 3.81030273 C4.65302002 4.53161377 4.6988623 5.2529248 4.74609375 5.99609375 C4.8013623 6.80030762 4.85663086 7.60452148 4.91357422 8.43310547 C5.05542702 12.64621371 5.10501228 16.84724381 5.0625 21.0625 C5.05798828 21.92810547 5.05347656 22.79371094 5.04882812 23.68554688 C5.03719913 25.79039539 5.01927073 27.89520758 5 30 C3.02 30 1.04 30 -1 30 C-0.67 20.1 -0.34 10.2 0 0 Z M1 2 C1.66 2.66 2.32 3.32 3 4 C3 3.34 3 2.68 3 2 C2.34 2 1.68 2 1 2 Z " fill="#151515" transform="translate(210,195)"/>
<path d="M0 0 C0.33 0.66 0.66 1.32 1 2 C0.34 2 -0.32 2 -1 2 C-1 2.66 -1 3.32 -1 4 C1.97 4.495 1.97 4.495 5 5 C2.57215443 6.21392278 0.44131582 7.16431888 -2.1875 7.9375 C-5.23420074 9.70043476 -5.23420074 9.70043476 -5.60546875 12.640625 C-5.85286865 15.43731957 -5.99046857 18.19299534 -6 21 C-6.33 21 -6.66 21 -7 21 C-7.03738281 20.37351563 -7.07476562 19.74703125 -7.11328125 19.1015625 C-7.17902344 18.28429687 -7.24476563 17.46703125 -7.3125 16.625 C-7.39951172 15.40683594 -7.39951172 15.40683594 -7.48828125 14.1640625 C-7.82990528 11.62078662 -7.82990528 11.62078662 -11 10 C-11 19.24 -11 28.48 -11 38 C-11.33 38 -11.66 38 -12 38 C-12 27.11 -12 16.22 -12 5 C-4 1 -4 1 0 0 Z M-10 12 C-9.34 12 -8.68 12 -8 12 C-8.33 12.66 -8.66 13.32 -9 14 C-9.33 13.34 -9.66 12.68 -10 12 Z " fill="#555555" transform="translate(221,185)"/>
<path d="M0 0 C1.32 0.33 2.64 0.66 4 1 C5.125 4.75 5.125 4.75 4 7 C3.91691362 8.37548156 3.89263984 9.75485796 3.90234375 11.1328125 C3.90556641 11.93847656 3.90878906 12.74414062 3.91210938 13.57421875 C3.92048828 14.41597656 3.92886719 15.25773437 3.9375 16.125 C3.94426758 17.39923828 3.94426758 17.39923828 3.95117188 18.69921875 C3.96297126 20.79950909 3.98090694 22.8997633 4 25 C2.35 25 0.7 25 -1 25 C-0.99476318 24.44014404 -0.98952637 23.88028809 -0.98413086 23.3034668 C-0.96333309 20.76482263 -0.95033096 18.22619641 -0.9375 15.6875 C-0.92912109 14.80642578 -0.92074219 13.92535156 -0.91210938 13.01757812 C-0.90888672 12.17001953 -0.90566406 11.32246094 -0.90234375 10.44921875 C-0.89710693 9.66893311 -0.89187012 8.88864746 -0.88647461 8.0847168 C-0.91862137 5.8038445 -0.91862137 5.8038445 -2 3 C-1.34 2.01 -0.68 1.02 0 0 Z " fill="#151515" transform="translate(232,288)"/>
<path d="M0 0 C0.99 0.33 1.98 0.66 3 1 C3.38370315 4.79810506 3.31842535 6.53204157 1.13671875 9.73828125 C-0.07564453 11.01251953 -0.07564453 11.01251953 -1.3125 12.3125 C-2.11300781 13.17488281 -2.91351563 14.03726562 -3.73828125 14.92578125 C-6 17 -6 17 -9 18 C-9.66 16.68 -10.32 15.36 -11 14 C-11.99 14 -12.98 14 -14 14 C-12.625 12.5 -12.625 12.5 -11 11 C-10.34 11 -9.68 11 -9 11 C-8.79375 10.4225 -8.5875 9.845 -8.375 9.25 C-6.51490783 6.20621281 -3.94908576 4.94514167 -1 3 C-0.67 2.01 -0.34 1.02 0 0 Z " fill="#393939" transform="translate(277,245)"/>
<path d="M0 0 C0.66 0.33 1.32 0.66 2 1 C1.01 1.99 0.02 2.98 -1 4 C-1 1 -1 1 0 0 Z M-18 2 C-17.67 2 -17.34 2 -17 2 C-16.67 3.65 -16.34 5.3 -16 7 C-15.34 7 -14.68 7 -14 7 C-13.67 6.34 -13.34 5.68 -13 5 C-11.35 5 -9.7 5 -8 5 C-9.32 5.33 -10.64 5.66 -12 6 C-12 6.66 -12 7.32 -12 8 C-10.35 7.67 -8.7 7.34 -7 7 C-7.99 9.31 -8.98 11.62 -10 14 C-8.68 14.33 -7.36 14.66 -6 15 C-5.01 11.37 -4.02 7.74 -3 4 C-2.34 4.33 -1.68 4.66 -1 5 C-1.94471154 13.1875 -1.94471154 13.1875 -4 16 C-7.62326997 17.67227845 -12.10959464 17.18824542 -16 17 C-16.66 16.34 -17.32 15.68 -18 15 C-18 13.68 -18 12.36 -18 11 C-17.01 10.67 -16.02 10.34 -15 10 C-15.99 9.34 -16.98 8.68 -18 8 C-18.1875 4.875 -18.1875 4.875 -18 2 Z " fill="#3C3C3C" transform="translate(325,296)"/>
<path d="M0 0 C-1.32 0.33 -2.64 0.66 -4 1 C-3.01 1.99 -2.02 2.98 -1 4 C-2.32 4.33 -3.64 4.66 -5 5 C-5 6.98 -5 8.96 -5 11 C-5.99 11 -6.98 11 -8 11 C-7.67 11.99 -7.34 12.98 -7 14 C-6.01 14 -5.02 14 -4 14 C-3.67 14.99 -3.34 15.98 -3 17 C-5.84809926 16.69209738 -7.58286148 16.34521809 -9.8125 14.5 C-11.61653257 10.70203669 -11.69010556 7.12546618 -11 3 C-9.15533583 0.36476547 -7.86427134 -0.63333943 -4.9375 -1.875 C-3 -2 -3 -2 0 0 Z " fill="#353535" transform="translate(190,296)"/>
<path d="M0 0 C0.33 0 0.66 0 1 0 C1.16276042 2.01822917 1.32552083 4.03645833 1.48828125 6.0546875 C1.87393036 8.39519216 1.87393036 8.39519216 5 10 C5 8.35 5 6.7 5 5 C5.33 5 5.66 5 6 5 C6.25287193 11.06892629 5.69832609 16.16200408 4 22 C2.35 22.33 0.7 22.66 -1 23 C-1.19456705 21.04235617 -1.38044247 19.08384679 -1.5625 17.125 C-1.71912109 15.48917969 -1.71912109 15.48917969 -1.87890625 13.8203125 C-2 11 -2 11 -1 9 C-0.77532169 7.46331135 -0.59203195 5.92031946 -0.4375 4.375 C-0.35371094 3.55773437 -0.26992188 2.74046875 -0.18359375 1.8984375 C-0.12300781 1.27195313 -0.06242187 0.64546875 0 0 Z " fill="#2C2C2C" transform="translate(285,213)"/>
<path d="M0 0 C0 3.63 0 7.26 0 11 C-6.435 11.495 -6.435 11.495 -13 12 C-13 11.34 -13 10.68 -13 10 C-12.01 10 -11.02 10 -10 10 C-10 9.34 -10 8.68 -10 8 C-9.67 7.67 -9.34 7.34 -9 7 C-9 6.01 -9 5.02 -9 4 C-9 3.01 -9 2.02 -9 1 C-5.9088726 0.33164813 -3.16770671 0 0 0 Z " fill="#070707" transform="translate(176,301)"/>
<path d="M0 0 C2.77560677 4.95644066 3.99082794 10.44955365 5 16 C4.01 15.01 3.02 14.02 2 13 C0.68 13.99 -0.64 14.98 -2 16 C-3.86540627 11.29593201 -5.36843005 7.05255964 -6 2 C-2.25 0.875 -2.25 0.875 0 2 C0 1.34 0 0.68 0 0 Z " fill="#3C3C3C" transform="translate(215,223)"/>
<path d="M0 0 C1.65 0.33 3.3 0.66 5 1 C5.05607422 2.22976563 5.05607422 2.22976563 5.11328125 3.484375 C5.21189453 5.10085938 5.21189453 5.10085938 5.3125 6.75 C5.37050781 7.81734375 5.42851562 8.8846875 5.48828125 9.984375 C6.03090154 13.1821068 6.85071145 14.62598691 9 17 C5.02972626 18.32342458 2.88343142 17.36639254 -1 16 C-1.33 15.34 -1.66 14.68 -2 14 C-1.34 13.01 -0.68 12.02 0 11 C0.24187651 8.25481679 0.24187651 8.25481679 0.125 5.3125 C0.10695313 4.31863281 0.08890625 3.32476562 0.0703125 2.30078125 C0.04710937 1.54152344 0.02390625 0.78226562 0 0 Z " fill="#0C0B0C" transform="translate(291,295)"/>
<path d="M0 0 C4.62 0.66 9.24 1.32 14 2 C12.02 2.99 12.02 2.99 10 4 C10 5.32 10 6.64 10 8 C2.08 7.67 -5.84 7.34 -14 7 C-14 6.67 -14 6.34 -14 6 C-7.565 5.505 -7.565 5.505 -1 5 C-0.67 3.35 -0.34 1.7 0 0 Z " fill="#464646" transform="translate(257,180)"/>
<path d="M0 0 C2.31 0 4.62 0 7 0 C6.01 2.31 5.02 4.62 4 7 C4.33 7.33 4.66 7.66 5 8 C5.07179964 9.51928038 5.08392007 11.04167482 5.0625 12.5625 C5.05347656 13.38878906 5.04445312 14.21507812 5.03515625 15.06640625 C5.01775391 16.02353516 5.01775391 16.02353516 5 17 C3.35 16.67 1.7 16.34 0 16 C0 10.72 0 5.44 0 0 Z " fill="#060606" transform="translate(240,296)"/>
<path d="M0 0 C-0.020625 0.804375 -0.04125 1.60875 -0.0625 2.4375 C-0.29633621 4.93354885 -0.29633621 4.93354885 1 6 C1 4.35 1 2.7 1 1 C1.33 1 1.66 1 2 1 C2 2.98 2 4.96 2 7 C1.01 7.495 1.01 7.495 0 8 C-0.65555119 10.52733235 -0.65555119 10.52733235 -1 13 C-4.00419641 14.0013988 -6.87709365 14.51421457 -10 15 C-9.67 14.01 -9.34 13.02 -9 12 C-6.4375 10.8125 -6.4375 10.8125 -4 10 C-4.99 9.34 -5.98 8.68 -7 8 C-7.33 7.34 -7.66 6.68 -8 6 C-7.34 5.34 -6.68 4.68 -6 4 C-5.67 3.01 -5.34 2.02 -5 1 C-3 0 -3 0 0 0 Z " fill="#595959" transform="translate(338,299)"/>
<path d="M0 0 C-0.25390625 1.88671875 -0.25390625 1.88671875 -1 4 C-2.77734375 5.08203125 -2.77734375 5.08203125 -4.9375 5.8125 C-5.64777344 6.06644531 -6.35804688 6.32039063 -7.08984375 6.58203125 C-9 7 -9 7 -11 6 C-11.625 2.9375 -11.625 2.9375 -12 0 C-10.56359829 -0.19573608 -9.12580496 -0.38127816 -7.6875 -0.5625 C-6.88699219 -0.66691406 -6.08648437 -0.77132813 -5.26171875 -0.87890625 C-3 -1 -3 -1 0 0 Z " fill="#171717" transform="translate(174,295)"/>
<path d="M0 0 C-1.26213042 3.78639125 -2.65345351 4.04104596 -6 6 C-6.99 7.485 -6.99 7.485 -8 9 C-8.99 8.67 -9.98 8.34 -11 8 C-11.48038431 2.59567654 -11.48038431 2.59567654 -9.4375 0.0625 C-6.03339271 -1.42134164 -3.56538192 -0.75421541 0 0 Z " fill="#363636" transform="translate(319,295)"/>
<path d="M0 0 C0.66 0.33 1.32 0.66 2 1 C2.625 3.5625 2.625 3.5625 3 6 C1.90554162 6.86657116 0.79902219 7.71792724 -0.3125 8.5625 C-0.92738281 9.03816406 -1.54226563 9.51382812 -2.17578125 10.00390625 C-2.77777344 10.33261719 -3.37976563 10.66132813 -4 11 C-4.99 10.67 -5.98 10.34 -7 10 C-6.45276317 6.62537285 -5.9451 4.91765 -4 2 C-2 0.75 -2 0.75 0 0 Z " fill="#1E1E1E" transform="translate(266,258)"/>
<path d="M0 0 C0.33 0 0.66 0 1 0 C1 5.94 1 11.88 1 18 C2.65 17.67 4.3 17.34 6 17 C6 17.66 6 18.32 6 19 C4.02 19 2.04 19 0 19 C-0.33 16.69 -0.66 14.38 -1 12 C-1.33 12 -1.66 12 -2 12 C-2.33 13.65 -2.66 15.3 -3 17 C-3.33 17 -3.66 17 -4 17 C-4 12.38 -4 7.76 -4 3 C-4.99 2.67 -5.98 2.34 -7 2 C-5.68 2 -4.36 2 -3 2 C-3 3.65 -3 5.3 -3 7 C-2.01 7 -1.02 7 0 7 C0 4.69 0 2.38 0 0 Z " fill="#5D5D5D" transform="translate(300,293)"/>
<path d="M0 0 C1.32 0.33 2.64 0.66 4 1 C5.125 4.75 5.125 4.75 4 7 C3.92805131 9.88370333 3.90708292 12.74239664 3.9375 15.625 C3.94426758 16.82769531 3.94426758 16.82769531 3.95117188 18.0546875 C3.96296832 20.03649006 3.98090395 22.01825433 4 24 C3.67 24 3.34 24 3 24 C3 18.72 3 13.44 3 8 C1.68 7.67 0.36 7.34 -1 7 C-1.625 5.1875 -1.625 5.1875 -2 3 C-1.34 2.01 -0.68 1.02 0 0 Z " fill="#545454" transform="translate(232,288)"/>
<path d="M0 0 C1.98 0.99 1.98 0.99 4 2 C4.21755666 7.4389165 4.10428384 11.87080814 2 17 C1.34 17 0.68 17 0 17 C0 11.39 0 5.78 0 0 Z M1 2 C1.66 2.66 2.32 3.32 3 4 C3 3.34 3 2.68 3 2 C2.34 2 1.68 2 1 2 Z " fill="#0D0D0D" transform="translate(210,195)"/>
<path d="M0 0 C2.45605371 2.55274874 2.98802939 3.85890643 3.29296875 7.453125 C3.25816406 8.70609375 3.22335938 9.9590625 3.1875 11.25 C3.16042969 12.51328125 3.13335937 13.7765625 3.10546875 15.078125 C3.07066406 16.04234375 3.03585938 17.0065625 3 18 C2.34 18.33 1.68 18.66 1 19 C1 15.37 1 11.74 1 8 C-3.55608613 7.08878277 -5.62751205 7.22266881 -10 8 C-10.66 7.67 -11.32 7.34 -12 7 C-11.67 5.68 -11.34 4.36 -11 3 C-11 3.99 -11 4.98 -11 6 C-9.33157466 5.67558396 -7.66519519 5.34060811 -6 5 C-4.9171875 4.8453125 -4.9171875 4.8453125 -3.8125 4.6875 C-1.79162953 4.13374667 -1.79162953 4.13374667 -0.75 1.9375 C-0.37875 0.9784375 -0.37875 0.9784375 0 0 Z " fill="#676767" transform="translate(174,295)"/>
<path d="M0 0 C1.98 0.99 1.98 0.99 4 2 C4.64453125 4.3125 4.64453125 4.3125 4.8125 7 C4.88082031 7.886875 4.94914062 8.77375 5.01953125 9.6875 C5 12 5 12 4 14 C2.68 14 1.36 14 0 14 C0 9.38 0 4.76 0 0 Z " fill="#181717" transform="translate(301,297)"/>
<path d="M0 0 C0.66 0.33 1.32 0.66 2 1 C2 4.63 2 8.26 2 12 C0.68 11.67 -0.64 11.34 -2 11 C-2.33 7.7 -2.66 4.4 -3 1 C-2.01 0.67 -1.02 0.34 0 0 Z " fill="#0B0B0B" transform="translate(225,301)"/>
<path d="M0 0 C-1.32 0.33 -2.64 0.66 -4 1 C-3.01 1.99 -2.02 2.98 -1 4 C-4.3 4.66 -7.6 5.32 -11 6 C-9.79310345 1.17241379 -9.79310345 1.17241379 -7 -1 C-3.55217092 -2.40068056 -3.29507551 -2.19671701 0 0 Z " fill="#4C4C4C" transform="translate(190,296)"/>
<path d="M0 0 C0.99 0 1.98 0 3 0 C2.34 3.63 1.68 7.26 1 11 C0.01 11.33 -0.98 11.66 -2 12 C-2.9765625 5.9453125 -2.9765625 5.9453125 -3 4 C-2.34 3.34 -1.68 2.68 -1 2 C-0.67 1.34 -0.34 0.68 0 0 Z " fill="#565656" transform="translate(247,223)"/>
<path d="M0 0 C1.33333333 0 2.66666667 0 4 0 C4.33 3.3 4.66 6.6 5 10 C3.68 10.33 2.36 10.66 1 11 C0 10 0 10 -0.09765625 7.71484375 C-0.08605469 6.79832031 -0.07445312 5.88179688 -0.0625 4.9375 C-0.05347656 4.01839844 -0.04445312 3.09929687 -0.03515625 2.15234375 C-0.02355469 1.44207031 -0.01195312 0.73179687 0 0 Z " fill="#0A0A0A" transform="translate(251,302)"/>
<path d="M0 0 C1.65 0.33 3.3 0.66 5 1 C5 2.32 5 3.64 5 5 C2.42786866 6.61949011 1.32330841 7.04408751 -1.75 6.625 C-2.4925 6.41875 -3.235 6.2125 -4 6 C-4 5.01 -4 4.02 -4 3 C-3.01 3 -2.02 3 -1 3 C-0.67 2.01 -0.34 1.02 0 0 Z " fill="#0B0B0B" transform="translate(319,295)"/>
<path d="M0 0 C0.763125 0.20625 1.52625 0.4125 2.3125 0.625 C2.6425 1.615 2.9725 2.605 3.3125 3.625 C2.3225 4.615 1.3325 5.605 0.3125 6.625 C-2.125 5.8125 -2.125 5.8125 -4.6875 4.625 C-5.0175 3.635 -5.3475 2.645 -5.6875 1.625 C-2.6875 -0.375 -2.6875 -0.375 0 0 Z " fill="#0F0F0F" transform="translate(243.6875,265.375)"/>
<path d="M0 0 C-0.020625 0.804375 -0.04125 1.60875 -0.0625 2.4375 C-0.29633621 4.93354885 -0.29633621 4.93354885 1 6 C1 4.35 1 2.7 1 1 C1.33 1 1.66 1 2 1 C2 2.98 2 4.96 2 7 C-0.97 6.67 -3.94 6.34 -7 6 C-6.67 5.34 -6.34 4.68 -6 4 C-5.67 3.01 -5.34 2.02 -5 1 C-3 0 -3 0 0 0 Z " fill="#3F3F3F" transform="translate(338,299)"/>
<path d="M0 0 C2 0 2 0 4.125 2 C4.74375 2.66 5.3625 3.32 6 4 C6.33 3.34 6.66 2.68 7 2 C7.66 3.65 8.32 5.3 9 7 C7.35232753 6.71890887 5.70686855 6.42481474 4.0625 6.125 C3.14597656 5.96257812 2.22945313 5.80015625 1.28515625 5.6328125 C0.15400391 5.31957031 0.15400391 5.31957031 -1 5 C-1.33 4.34 -1.66 3.68 -2 3 C-1.34 2.01 -0.68 1.02 0 0 Z " fill="#1B1B1B" transform="translate(291,306)"/>
<path d="M0 0 C0.33 0.66 0.66 1.32 1 2 C0.34 2 -0.32 2 -1 2 C-1 2.66 -1 3.32 -1 4 C1.97 4.495 1.97 4.495 5 5 C1.77484237 6.73662334 -1.51329166 7.8905928 -5 9 C-4.835 8.4225 -4.67 7.845 -4.5 7.25 C-3.85537969 4.73335631 -3.85537969 4.73335631 -4 1 C-2.68 0.67 -1.36 0.34 0 0 Z " fill="#494949" transform="translate(221,185)"/>
<path d="M0 0 C0.33 0 0.66 0 1 0 C1.08121924 1.60332791 1.13929134 3.20784026 1.1875 4.8125 C1.23970703 6.15248047 1.23970703 6.15248047 1.29296875 7.51953125 C0.95081002 10.41647515 0.24606427 11.22555028 -2 13 C-1.855625 12.154375 -1.71125 11.30875 -1.5625 10.4375 C-0.9941203 6.96406851 -0.48797607 3.48554338 0 0 Z M-4 13 C-1.525 13.99 -1.525 13.99 1 15 C1 15.33 1 15.66 1 16 C-2.3 16 -5.6 16 -9 16 C-9 15.67 -9 15.34 -9 15 C-7.35 15 -5.7 15 -4 15 C-4 14.34 -4 13.68 -4 13 Z " fill="#515050" transform="translate(291,296)"/>
<path d="M0 0 C2.375 -0.125 2.375 -0.125 5 0 C7 2 7 2 7.125 5.625 C7.08375 6.73875 7.0425 7.8525 7 9 C6.34 8.67 5.68 8.34 5 8 C5.33 6.35 5.66 4.7 6 3 C3.69 3.66 1.38 4.32 -1 5 C-0.67 3.35 -0.34 1.7 0 0 Z " fill="#050505" transform="translate(332,296)"/>
<path d="M0 0 C0.33 0 0.66 0 1 0 C1 2.64 1 5.28 1 8 C1.66 8 2.32 8 3 8 C3.66 6.68 4.32 5.36 5 4 C5.33 4 5.66 4 6 4 C6 6.31 6 8.62 6 11 C4.02 11 2.04 11 0 11 C0 7.37 0 3.74 0 0 Z " fill="#6B6B6B" transform="translate(211,301)"/>
<path d="M0 0 C0.33 0 0.66 0 1 0 C1 6.6 1 13.2 1 20 C2.65 19.67 4.3 19.34 6 19 C5.67 19.99 5.34 20.98 5 22 C3 22.75 3 22.75 1 23 C0 22 0 22 -0.11352539 19.86694336 C-0.10828857 18.95050049 -0.10305176 18.03405762 -0.09765625 17.08984375 C-0.09443359 16.10048828 -0.09121094 15.11113281 -0.08789062 14.09179688 C-0.07951172 13.05087891 -0.07113281 12.00996094 -0.0625 10.9375 C-0.05798828 9.89271484 -0.05347656 8.84792969 -0.04882812 7.77148438 C-0.03699913 5.1809334 -0.02051689 2.59049441 0 0 Z " fill="#6B6B6B" transform="translate(260,291)"/>
<path d="M0 0 C0.33 0 0.66 0 1 0 C1 2.97 1 5.94 1 9 C-0.65 8.67 -2.3 8.34 -4 8 C-3.67 6.02 -3.34 4.04 -3 2 C-2.01 2 -1.02 2 0 2 C0 1.34 0 0.68 0 0 Z " fill="#212121" transform="translate(244,304)"/>
<path d="M0 0 C0.33 0 0.66 0 1 0 C1.02710123 2.5625718 1.04688771 5.12485365 1.0625 7.6875 C1.07087891 8.40873047 1.07925781 9.12996094 1.08789062 9.87304688 C1.10543632 13.71555382 0.93524221 17.26639526 0 21 C-0.99 20.67 -1.98 20.34 -3 20 C-2.67 19.21625 -2.34 18.4325 -2 17.625 C-0.91195408 13.68083354 -0.88205162 10.42273301 -1.02734375 6.3671875 C-1.00078041 4.06756102 -0.65271297 2.19594906 0 0 Z " fill="#050505" transform="translate(290,202)"/>
<path d="M0 0 C2.125 0.9375 2.125 0.9375 4 2 C4 3.32 4 4.64 4 6 C0.89448334 6 -0.35261084 5.4606285 -3 4 C-2.67 3.01 -2.34 2.02 -2 1 C-1.34 0.67 -0.68 0.34 0 0 Z " fill="#020202" transform="translate(169,303)"/>
<path d="M0 0 C2.475 0.99 2.475 0.99 5 2 C4.34 3.32 3.68 4.64 3 6 C0.525 5.01 0.525 5.01 -2 4 C-1.34 2.68 -0.68 1.36 0 0 Z " fill="#131313" transform="translate(277,185)"/>
<path d="M0 0 C3.85645121 -0.22036864 6.49223216 0.39644899 10 2 C10 2.33 10 2.66 10 3 C3.565 3.495 3.565 3.495 -3 4 C-3 3.34 -3 2.68 -3 2 C-2.01 2 -1.02 2 0 2 C0 1.34 0 0.68 0 0 Z " fill="#151515" transform="translate(166,309)"/>
<path d="M0 0 C0.99 0.33 1.98 0.66 3 1 C2.67 2.65 2.34 4.3 2 6 C0.68 6 -0.64 6 -2 6 C-2 4.35 -2 2.7 -2 1 C-1.34 0.67 -0.68 0.34 0 0 Z " fill="#0D0D0D" transform="translate(310,297)"/>
<path d="M0 0 C0.99 0 1.98 0 3 0 C3 0.66 3 1.32 3 2 C3.66 2 4.32 2 5 2 C4.67 2.66 4.34 3.32 4 4 C3.34 3.67 2.68 3.34 2 3 C2.33 3.99 2.66 4.98 3 6 C1.68 6.33 0.36 6.66 -1 7 C-1 4.37886292 -0.68707555 2.49064888 0 0 Z " fill="#4B4B4B" transform="translate(267,289)"/>
<path d="M0 0 C1.32 0.66 2.64 1.32 4 2 C3.34 3.32 2.68 4.64 2 6 C0.68 5.67 -0.64 5.34 -2 5 C-1.125 1.125 -1.125 1.125 0 0 Z " fill="#0A0A0A" transform="translate(227,253)"/>
<path d="M0 0 C1.98 0 3.96 0 6 0 C6.33 0.99 6.66 1.98 7 3 C6.34 3.66 5.68 4.32 5 5 C3.68 5 2.36 5 1 5 C0.67 3.35 0.34 1.7 0 0 Z " fill="#090909" transform="translate(266,183)"/>
<path d="M0 0 C1 3 1 3 0.0625 5.1875 C-0.4634375 6.0846875 -0.4634375 6.0846875 -1 7 C-1.99 7 -2.98 7 -4 7 C-4 5.02 -4 3.04 -4 1 C-2 0 -2 0 0 0 Z " fill="#080808" transform="translate(216,302)"/>
<path d="M0 0 C0.66 0.33 1.32 0.66 2 1 C1.835 1.763125 1.67 2.52625 1.5 3.3125 C0.90854604 6.03596236 0.90854604 6.03596236 1 9 C0.01 9.33 -0.98 9.66 -2 10 C-1.95875 9.21625 -1.9175 8.4325 -1.875 7.625 C-1.71271266 4.83883881 -1.71271266 4.83883881 -4 3 C-2.68 2.01 -1.36 1.02 0 0 Z " fill="#434343" transform="translate(259,262)"/>
<path d="M0 0 C0.99 0.33 1.98 0.66 3 1 C3 2.65 3 4.3 3 6 C1.02 6 -0.96 6 -3 6 C-3 5.34 -3 4.68 -3 4 C-2.34 3.67 -1.68 3.34 -1 3 C-0.67 2.01 -0.34 1.02 0 0 Z " fill="#0E0E0E" transform="translate(277,245)"/>
<path d="M0 0 C0.99 0.33 1.98 0.66 3 1 C3 6.28 3 11.56 3 17 C2.67 17 2.34 17 2 17 C2 13.04 2 9.08 2 5 C1.34 5 0.68 5 0 5 C0 3.35 0 1.7 0 0 Z " fill="#9B9B9B" transform="translate(237,295)"/>
<path d="M0 0 C0.66 1.32 1.32 2.64 2 4 C1.01 4.495 1.01 4.495 0 5 C0 3.35 0 1.7 0 0 Z M2 1 C4.475 1.495 4.475 1.495 7 2 C7 2.99 7 3.98 7 5 C5.35 4.67 3.7 4.34 2 4 C2 3.01 2 2.02 2 1 Z " fill="#090909" transform="translate(199,295)"/>
<path d="M0 0 C1.5625 1.25 1.5625 1.25 3 3 C2.6875 5.1875 2.6875 5.1875 2 7 C1.67 6.34 1.34 5.68 1 5 C-1.02463255 4.34786708 -1.02463255 4.34786708 -3 4 C-2.67 3.01 -2.34 2.02 -2 1 C-1.34 0.67 -0.68 0.34 0 0 Z " fill="#232323" transform="translate(211,296)"/>
<path d="M0 0 C0.66 0.33 1.32 0.66 2 1 C2.625 3.5625 2.625 3.5625 3 6 C2.01 6.66 1.02 7.32 0 8 C-0.99 7.67 -1.98 7.34 -3 7 C-2.01 4.69 -1.02 2.38 0 0 Z " fill="#070707" transform="translate(266,258)"/>
<path d="M0 0 C0.33 0 0.66 0 1 0 C1.33 1.65 1.66 3.3 2 5 C2.66 5 3.32 5 4 5 C4.33 4.34 4.66 3.68 5 3 C6.65 3 8.3 3 10 3 C8.68 3.33 7.36 3.66 6 4 C5.67 5.32 5.34 6.64 5 8 C2.525 7.01 2.525 7.01 0 6 C0 4.02 0 2.04 0 0 Z " fill="#747474" transform="translate(307,298)"/>
<path d="M0 0 C0.66 0.99 1.32 1.98 2 3 C1.34 3 0.68 3 0 3 C0 4.65 0 6.3 0 8 C-1.32 7.34 -2.64 6.68 -4 6 C-2.84826645 3.53199953 -1.95216435 1.95216435 0 0 Z " fill="#090909" transform="translate(217,235)"/>
<path d="M0 0 C1.32 0 2.64 0 4 0 C4 1.65 4 3.3 4 5 C2.02 5.99 2.02 5.99 0 7 C0 4.69 0 2.38 0 0 Z " fill="#505050" transform="translate(235,210)"/>
<path d="M0 0 C2.96175123 0.61277612 4.38058783 1.25372522 7 3 C5.68 3 4.36 3 3 3 C3 3.66 3 4.32 3 5 C1.68 5.33 0.36 5.66 -1 6 C-0.67 4.02 -0.34 2.04 0 0 Z " fill="#424242" transform="translate(163,306)"/>
<path d="M0 0 C0.99 0 1.98 0 3 0 C3 2.31 3 4.62 3 7 C2.01 7.33 1.02 7.66 0 8 C0 5.36 0 2.72 0 0 Z " fill="#070707" transform="translate(193,290)"/>
<path d="M0 0 C1.32 0 2.64 0 4 0 C4 1.65 4 3.3 4 5 C2.68 5 1.36 5 0 5 C0 3.35 0 1.7 0 0 Z " fill="#090809" transform="translate(261,306)"/>
<path d="M0 0 C0 0.66 0 1.32 0 2 C-2.64 2.99 -5.28 3.98 -8 5 C-8 3.68 -8 2.36 -8 1 C-2.25 0 -2.25 0 0 0 Z " fill="#6C6C6C" transform="translate(315,306)"/>
<path d="M0 0 C0.66 0.33 1.32 0.66 2 1 C1.67 2.32 1.34 3.64 1 5 C-0.32 5 -1.64 5 -3 5 C-2.625 3.0625 -2.625 3.0625 -2 1 C-1.34 0.67 -0.68 0.34 0 0 Z " fill="#2E2E2E" transform="translate(236,217)"/>
<path d="M0 0 C2.42945561 3.64418341 2.0828781 4.92923364 1.625 9.1875 C1.51414062 10.27417969 1.40328125 11.36085937 1.2890625 12.48046875 C1.19367188 13.31191406 1.09828125 14.14335937 1 15 C0.67 15 0.34 15 0 15 C0 11.04 0 7.08 0 3 C-0.66 2.67 -1.32 2.34 -2 2 C-1.34 2 -0.68 2 0 2 C0 1.34 0 0.68 0 0 Z " fill="#282828" transform="translate(285,197)"/>
<path d="M0 0 C1.98 0 3.96 0 6 0 C4.68 1.65 3.36 3.3 2 5 C2 4.34 2 3.68 2 3 C1.34 3 0.68 3 0 3 C0 2.01 0 1.02 0 0 Z " fill="#333333" transform="translate(274,251)"/>
<path d="M0 0 C0.99 0 1.98 0 3 0 C2.67 2.31 2.34 4.62 2 7 C1.67 6.34 1.34 5.68 1 5 C0.34 4.67 -0.32 4.34 -1 4 C-0.67 2.68 -0.34 1.36 0 0 Z " fill="#474747" transform="translate(247,223)"/>
</svg>
